<?xml version="1.0" standalone="no"?>
<!DOCTYPE svg PUBLIC "-//W3C//DTD SVG 1.1//EN" "http://www.w3.org/Graphics/SVG/1.1/DTD/svg11.dtd" >
<svg xmlns="http://www.w3.org/2000/svg" xmlns:xlink="http://www.w3.org/1999/xlink" version="1.1">
<metadata>
Created by FontForge 20170731 at Mon Aug  9 03:10:32 2021
 By Aleksey,,,
Copyright (c) 2017 by Rajesh Rajput. All rights reserved.
</metadata>
<defs>
<font id="Thunder-BlackLC" horiz-adv-x="364" >
  <font-face 
    font-family="Thunder Black"
    font-weight="900"
    font-stretch="normal"
    units-per-em="1000"
    panose-1="0 0 0 0 0 0 0 0 0 0"
    ascent="800"
    descent="-200"
    x-height="510"
    cap-height="700"
    bbox="-110 -257 975 897"
    underline-thickness="50"
    underline-position="-175"
    unicode-range="U+000D-FB02"
  />
<missing-glyph horiz-adv-x="486" 
d="M6 700h474v-700h-474v700zM243 391l157 259h-314zM56 83l162 267l-162 267v-534zM430 83v534l-162 -267zM86 50h314l-157 259z" />
    <glyph glyph-name=".notdef" horiz-adv-x="486" 
d="M6 700h474v-700h-474v700zM243 391l157 259h-314zM56 83l162 267l-162 267v-534zM430 83v534l-162 -267zM86 50h314l-157 259z" />
    <glyph glyph-name=".null" horiz-adv-x="0" 
 />
    <glyph glyph-name=".null" horiz-adv-x="0" 
 />
    <glyph glyph-name="uni000D" unicode="&#xd;" horiz-adv-x="250" 
 />
    <glyph glyph-name="space" unicode=" " horiz-adv-x="160" 
 />
    <glyph glyph-name="exclam" unicode="!" horiz-adv-x="192" 
d="M186 700v-100l-20 -417h-140l-20 417v100h180zM10 86q0 90 86 90q42 0 64 -23.5t22 -68.5q0 -43 -22 -66t-64 -23q-86 0 -86 91z" />
    <glyph glyph-name="quotedbl" unicode="&#x22;" horiz-adv-x="286" 
d="M137 640l-10 -214h-110l-10 214v80h130v-80zM279 640l-10 -214h-110l-10 214v80h130v-80z" />
    <glyph glyph-name="numbersign" unicode="#" horiz-adv-x="457" 
d="M90 216h-83v110h89l3 49h-92v110h99l12 216h120l-13 -216h23l12 216h120l-13 -216h84v-110h-90l-3 -49h93v-110h-99l-12 -216h-120l12 216h-22l-12 -216h-120zM238 326l3 49h-22l-3 -49h22z" />
    <glyph glyph-name="dollar" unicode="$" horiz-adv-x="384" 
d="M198 460v78q0 16 -6 16t-6 -16v-56q0 -11 1.5 -18.5t9 -15t23.5 -17.5t45 -26l27 -15q26 -14 42.5 -31t26 -40t13.5 -54.5t4 -75.5v-13q0 -69 -29.5 -114t-85.5 -62l9 -99h-160l9 98q-115 32 -115 177v64h180v-78q0 -16 6 -16t6 15v59q0 11 -1.5 18t-8 14t-21 16
t-40.5 24l-32 18q-26 15 -43.5 32.5t-27.5 41.5t-14 56t-4 76v9q0 144 115 176l-9 98h160l-9 -99q56 -17 85.5 -61.5t29.5 -113.5v-65h-180z" />
    <glyph glyph-name="percent" unicode="%" horiz-adv-x="677" 
d="M6 538q0 38 7.5 69.5t24.5 54t44.5 35.5t67.5 13t68 -13t46 -36t26 -54.5t8 -68.5v-66q0 -37 -8 -68.5t-26 -54.5t-46 -36t-68 -13t-67.5 13t-44.5 35.5t-24.5 54.5t-7.5 69v66zM438 700h100l-300 -700h-100zM146 432q0 -16 6 -16t6 16v146q0 16 -6 16t-6 -16v-146z
M379 228q0 38 7.5 69.5t24.5 54t44.5 35.5t67.5 13t68 -13t46 -36t26 -54.5t8 -68.5v-66q0 -37 -8 -68.5t-26 -54.5t-46 -36t-68 -13t-67.5 13t-44.5 35.5t-24.5 54.5t-7.5 69v66zM519 122q0 -16 6 -16t6 16v146q0 16 -6 16t-6 -16v-146z" />
    <glyph glyph-name="ampersand" unicode="&#x26;" horiz-adv-x="414" 
d="M186 421q0 -5 0.5 -7.5t5.5 -2.5h6v60h180v-60h30v-121h-30v-290h-123v56h-12q-8 -32 -33.5 -49t-63.5 -17q-28 0 -53 10.5t-44.5 33t-31 58t-11.5 84.5v19q0 31 3.5 58t15 47.5t31.5 32t53 11.5v12q-33 0 -53 12t-31.5 32.5t-15 47.5t-3.5 58v19q0 91 46.5 138t136.5 47
q91 0 140 -48t49 -137v-34h-180v47q0 16 -6 16t-6 -16v-117zM192 290q-5 0 -5.5 -3t-0.5 -7v-118q0 -16 6 -16t6 16v128h-6z" />
    <glyph glyph-name="quotesingle" unicode="'" horiz-adv-x="143" 
d="M137 640l-10 -214h-110l-10 214v80h130v-80z" />
    <glyph glyph-name="parenleft" unicode="(" horiz-adv-x="230" 
d="M75 -175q-35 132 -51.5 243t-16.5 215t16.5 214.5t51.5 242.5l150 -20q-20 -134 -29 -238t-9 -199q0 -48 2 -97.5t6.5 -102.5t12 -112t17.5 -126z" />
    <glyph glyph-name="parenright" unicode=")" horiz-adv-x="230" 
d="M156.005 739.989q34.9971 -131.992 51.4961 -242.985t16.499 -214.986q0 -103.994 -16.499 -214.487t-51.4961 -242.485l-149.991 19.999q19.999 133.992 28.998 237.985q9 103.994 9 198.988q0 47.9971 -2 97.4941q-2 49.4961 -6.5 102.493t-11.999 111.993
q-7.5 58.9961 -17.499 125.992z" />
    <glyph glyph-name="asterisk" unicode="*" horiz-adv-x="390" 
d="M121 539l-114 17l40 124l102 -54l-19 114h130l-19 -114l102 54l40 -124l-114 -17l82 -81l-104 -76l-52 104l-51 -104l-105 77z" />
    <glyph glyph-name="plus" unicode="+" horiz-adv-x="428" 
d="M422 274h-138v-143h-140v143h-138v130h138v143h140v-143h138v-130z" />
    <glyph glyph-name="comma" unicode="," horiz-adv-x="184" 
d="M22 161h156l-81 -257h-106z" />
    <glyph glyph-name="hyphen" unicode="-" horiz-adv-x="252" 
d="M246 261h-240v156h240v-156z" />
    <glyph glyph-name="period" unicode="." horiz-adv-x="184" 
d="M6 86q0 90 86 90q42 0 64 -23.5t22 -68.5q0 -43 -22 -66t-64 -23q-86 0 -86 91z" />
    <glyph glyph-name="slash" unicode="/" horiz-adv-x="260" 
d="M6 -80l88 810h160l-88 -810h-160z" />
    <glyph glyph-name="zero" unicode="0" horiz-adv-x="384" 
d="M6 525q0 91 47 138t136 47q91 0 140 -48t49 -137v-349q0 -90 -49 -138t-140 -48q-89 0 -136 47.5t-47 138.5v349zM186 162q0 -16 6 -16t6 16v376q0 16 -6 16t-6 -16v-376z" />
    <glyph glyph-name="one" unicode="1" horiz-adv-x="234" 
d="M48 0v534l-6 10h-35v156h221v-700h-180z" />
    <glyph glyph-name="two" unicode="2" horiz-adv-x="385" 
d="M7 525q0 89 49 137t140 48q89 0 136 -47t47 -138v-9q0 -44 -4 -84t-14 -73.5t-27.5 -58.5t-43.5 -40l-32 -18q-26 -15 -40.5 -23.5t-21 -15t-8 -11.5t-1.5 -12v-8h192v-172h-372v149q0 44 4 74t13.5 51t26.5 36.5t42 29.5l27 15q30 17 46 27t23.5 18.5t8.5 17.5t1 24v96
q0 16 -6 16t-6 -16v-128h-180v115z" />
    <glyph glyph-name="three" unicode="3" horiz-adv-x="384" 
d="M198 538q0 16 -6 16t-6 -16v-78h-180v65q0 89 49 137t140 48q89 0 136 -47t47 -138v-9q0 -41 -9 -70.5t-23 -49t-31 -29t-34 -10.5v-12q17 0 34 -10t31 -30t23 -50t9 -71v-9q0 -91 -47 -138t-136 -47q-91 0 -140 48t-49 137v65h180v-78q0 -16 6 -16t6 16v54q0 19 -1 32
t-5.5 20.5t-13.5 10.5t-26 3h-17v136h17q17 0 26 3t13.5 10.5t5.5 20.5t1 32v54z" />
    <glyph glyph-name="four" unicode="4" horiz-adv-x="384" 
d="M378 700v-700h-180v181h-192v519h180v-363h12v363h180z" />
    <glyph glyph-name="five" unicode="5" horiz-adv-x="384" 
d="M6 700h352v-156h-172v-38h4q45 22 82 22q52 0 79 -37t27 -91v-224q0 -91 -47 -138.5t-136 -47.5q-91 0 -140 48t-49 138v108h180v-122q0 -16 6 -16t6 16v223q0 15 -6 15t-6 -15v-85h-180v400z" />
    <glyph glyph-name="six" unicode="6" horiz-adv-x="384" 
d="M198 441v97q0 16 -6 16q-5 0 -5 -16v-132h12q11 12 29.5 17.5t36.5 5.5q23 0 43.5 -8t36 -24.5t24.5 -41.5t9 -59v-120q0 -90 -49 -138t-140 -48q-89 0 -136 47.5t-47 138.5v349q0 91 47 138t136 47q91 0 140 -48t49 -137v-84h-180zM186 162q0 -16 6 -16t6 16v85
q0 15 -6 15t-6 -15v-85z" />
    <glyph glyph-name="seven" unicode="7" horiz-adv-x="338" 
d="M6 700h326v-156l-118 -544h-185l117 535l-8 9h-132v156z" />
    <glyph glyph-name="eight" unicode="8" horiz-adv-x="384" 
d="M6 535q0 42 9 74.5t30 55t55.5 34t86.5 11.5q53 0 89.5 -12t59 -35t32.5 -55t10 -73v-23q0 -31 -7.5 -56t-20 -43t-29 -28t-33.5 -10v-12q17 0 33.5 -9.5t29 -29.5t20 -51.5t7.5 -75.5v-21q0 -45 -10 -79.5t-32.5 -58t-58.5 -36t-89 -12.5q-52 0 -87 12t-56 35.5
t-30 58.5t-9 80v21q0 83 22.5 124.5t57.5 41.5v12q-35 0 -57.5 37.5t-22.5 99.5v23zM186 463q0 -16 6 -16t6 16v75q0 16 -6 16t-6 -16v-75zM186 162q0 -16 6 -16t6 16v113q0 16 -6 16t-6 -16v-113z" />
    <glyph glyph-name="nine" unicode="9" horiz-adv-x="384" 
d="M186 259v-97q0 -16 6 -16q5 0 5 16v132h-12q-11 -12 -29 -17.5t-37 -5.5q-23 0 -43.5 8t-36 24.5t-24.5 41.5t-9 59v120q0 90 49 138t140 48q89 0 136 -47.5t47 -138.5v-349q0 -91 -47 -138t-136 -47q-91 0 -140 48t-49 137v84h180zM198 538q0 16 -6 16t-6 -16v-85
q0 -15 6 -15t6 15v85z" />
    <glyph glyph-name="colon" unicode=":" horiz-adv-x="184" 
d="M6 86q0 90 86 90q42 0 64 -23.5t22 -68.5q0 -43 -22 -66t-64 -23q-86 0 -86 91zM6 426q0 90 86 90q42 0 64 -23.5t22 -68.5q0 -43 -22 -66t-64 -23q-86 0 -86 91z" />
    <glyph glyph-name="semicolon" unicode=";" horiz-adv-x="184" 
d="M6 426q0 90 86 90q42 0 64 -23.5t22 -68.5q0 -43 -22 -66t-64 -23q-86 0 -86 91zM22 161h156l-81 -257h-106z" />
    <glyph glyph-name="less" unicode="&#x3c;" horiz-adv-x="301" 
d="M294 99l-288 104v122l289 106v-160h-187v-12h186v-160z" />
    <glyph glyph-name="equal" unicode="=" horiz-adv-x="398" 
d="M392 384h-386v130h386v-130zM392 164h-386v130h386v-130z" />
    <glyph glyph-name="greater" unicode="&#x3e;" horiz-adv-x="301" 
d="M6.01758 431.006l287.982 -103.993v-121.993l-288.982 -105.993v159.99h186.989v11.999h-185.989v159.99z" />
    <glyph glyph-name="question" unicode="?" horiz-adv-x="385" 
d="M7 525q0 89 49 137t140 48q89 0 136 -47t47 -138v-9q0 -40 -6 -69t-16 -51.5t-21.5 -39t-23.5 -31.5l-1 -2q-18 -23 -31 -45.5t-13 -57.5v-37h-170v26q0 38 5.5 64.5t14.5 46t20 33.5t21 26l1 1q8 9 15 18.5t12.5 21t9 26.5t3.5 36v56q0 16 -6 16t-6 -16v-108h-180v95z
M95 86q0 90 86 90q42 0 64 -23.5t22 -68.5q0 -43 -22 -66t-64 -23q-86 0 -86 91z" />
    <glyph glyph-name="at" unicode="@" horiz-adv-x="664" 
d="M478 107q0 -16 15 -16t15 16v299q0 59 -40.5 84t-135.5 25t-135.5 -25t-40.5 -84v-267q0 -55 8 -90t30.5 -55t61.5 -27t102 -7v-140q-93 0 -159.5 17.5t-109 55.5t-62.5 97.5t-20 142.5v299q0 49 24 90t67 70.5t103 46t131 16.5t131 -16.5t103.5 -46t67.5 -70.5t24 -90
v-298q0 -32 -12 -58.5t-33.5 -45.5t-52 -29.5t-66.5 -10.5q-31 0 -58 7.5t-46.5 21t-30.5 32t-11 40.5v4h-12q-5 -50 -25 -77.5t-51 -27.5q-36 0 -55 40t-19 117v236q0 45 21.5 73.5t54.5 28.5q27 0 47 -21t27 -58h12v74h130v-373zM348 346q-2 5 -7 5t-5 -8v-182
q0 -10 5 -10q4 0 7 5v190z" />
    <glyph glyph-name="A" unicode="A" horiz-adv-x="378" 
d="M331 700l44 -700h-180v144h-12v-144h-180l48 700h280zM195 300v86h-12v-86h12z" />
    <glyph glyph-name="B" unicode="B" horiz-adv-x="392" 
d="M190 700q90 0 139 -44.5t49 -127.5v-5q0 -39 -9.5 -69t-24.5 -50t-33 -30t-35 -10v-12q16 0 35.5 -11.5t36.5 -33.5t28.5 -52.5t11.5 -69.5v-13q0 -81 -52.5 -126.5t-145.5 -45.5h-184v700h184zM186 436h2q8 0 9 2.5t1 13.5v76q0 11 -1 13.5t-9 2.5h-2v-108zM186 156h2
q8 0 9 2.5t1 13.5v92q0 11 -1 13.5t-9 2.5h-2v-124z" />
    <glyph glyph-name="C" unicode="C" horiz-adv-x="384" 
d="M186 162q0 -16 6 -16t6 16v178h180v-164q0 -90 -49 -138t-140 -48q-89 0 -136 47.5t-47 138.5v349q0 91 47 138t136 47q91 0 140 -48t49 -137v-165h-180v178q0 16 -6 16t-6 -16v-376z" />
    <glyph glyph-name="D" unicode="D" horiz-adv-x="384" 
d="M190 700q90 0 139 -43.5t49 -131.5v-350q0 -89 -49 -132t-139 -43h-184v700h184zM187 156h2q7 0 8 2.5t1 13.5v356q0 11 -1 13.5t-8 2.5h-2v-388z" />
    <glyph glyph-name="E" unicode="E" horiz-adv-x="272" 
d="M186 544v-97h80v-156h-80v-135h80v-156h-260v700h260v-156h-80z" />
    <glyph glyph-name="F" unicode="F" horiz-adv-x="268" 
d="M186 544v-116h75v-156h-75v-272h-180v700h260v-156h-80z" />
    <glyph glyph-name="G" unicode="G" horiz-adv-x="384" 
d="M186 392h192v-392h-122v56h-12q-8 -32 -36 -49t-62 -17q-25 0 -50 10.5t-45 33t-32.5 57.5t-12.5 85v349q0 91 47 138t136 47q91 0 140 -48t49 -137v-113h-180v126q0 16 -6 16t-6 -16v-146zM186 162q0 -16 6 -16t6 16v114h-12v-114z" />
    <glyph glyph-name="H" unicode="H" horiz-adv-x="384" 
d="M378 700v-700h-180v281h-12v-281h-180v700h180v-263h12v263h180z" />
    <glyph glyph-name="I" unicode="I" horiz-adv-x="192" 
d="M186 700v-700h-180v700h180z" />
    <glyph glyph-name="J" unicode="J" horiz-adv-x="384" 
d="M378 700v-524q0 -90 -49 -138t-141 -48q-91 0 -136.5 47.5t-45.5 138.5v159h180v-173q0 -16 6 -16t6 16v538h180z" />
    <glyph glyph-name="K" unicode="K" horiz-adv-x="391" 
d="M186 427h12v273h190l-42 -350l42 -350h-190v272h-12v-272h-180v700h180v-273z" />
    <glyph glyph-name="L" unicode="L" horiz-adv-x="269" 
d="M186 700v-544h80v-156h-260v700h180z" />
    <glyph glyph-name="M" unicode="M" horiz-adv-x="482" 
d="M236 700v-384h12v384h228v-700h-165l21 380h-12l-24 -380h-110l-24 380h-12l21 -380h-165v700h230z" />
    <glyph glyph-name="N" unicode="N" horiz-adv-x="400" 
d="M394 700v-700h-193l-46 380h-10l41 -380h-180v700h193l50 -384h10l-45 384h180z" />
    <glyph glyph-name="O" unicode="O" horiz-adv-x="384" 
d="M6 525q0 91 47 138t136 47q91 0 140 -48t49 -137v-349q0 -90 -49 -138t-140 -48q-89 0 -136 47.5t-47 138.5v349zM186 162q0 -16 6 -16t6 16v376q0 16 -6 16t-6 -16v-376z" />
    <glyph glyph-name="P" unicode="P" horiz-adv-x="384" 
d="M190 700q91 0 139.5 -60.5t48.5 -192.5v-2q0 -68 -11.5 -114t-35 -73.5t-59.5 -39.5t-84 -12h-2v-206h-180v700h184zM186 362h2q8 0 9 2.5t1 13.5v150q0 11 -1 13.5t-9 2.5h-2v-182z" />
    <glyph glyph-name="Q" unicode="Q" horiz-adv-x="384" 
d="M6 525q0 91 47 138t136 47q91 0 140 -48t49 -137v-349q0 -72 -33 -118t-94 -61v-7q0 -7 1.5 -9.5t9.5 -2.5h78v-130h-64q-37 0 -64.5 5.5t-45.5 19.5t-26.5 38t-8.5 62v23q-61 14 -93 59.5t-32 120.5v349zM186 162q0 -16 6 -16t6 16v376q0 16 -6 16t-6 -16v-376z" />
    <glyph glyph-name="R" unicode="R" horiz-adv-x="384" 
d="M190 700q90 0 139 -45.5t49 -141.5v-5q0 -44 -10 -76.5t-25 -54.5t-33 -32.5t-34 -10.5v-12q16 0 34 -12t33 -34t25 -54t10 -72v-8q0 -40 1.5 -75t8.5 -67h-180q-7 33 -8.5 68t-1.5 76v90q0 11 -1 13.5t-9 2.5h-2v-250h-180v700h184zM186 406h2q8 0 9 2.5t1 13.5v107
q0 10 -1 12.5t-9 2.5h-2v-138z" />
    <glyph glyph-name="S" unicode="S" horiz-adv-x="384" 
d="M198 460v78q0 16 -6 16t-6 -16v-56q0 -11 1.5 -18.5t9 -15t23.5 -17.5t45 -26l27 -15q26 -14 42.5 -31t26 -40t13.5 -54.5t4 -75.5v-13q0 -90 -49 -138t-140 -48q-90 0 -136.5 47.5t-46.5 138.5v64h180v-78q0 -16 6 -16t6 15v59q0 11 -1.5 18t-8 14t-21 16t-40.5 24
l-32 18q-26 15 -43.5 32.5t-27.5 41.5t-14 56t-4 76v9q0 91 47 138t136 47q91 0 140 -48t49 -137v-65h-180z" />
    <glyph glyph-name="T" unicode="T" horiz-adv-x="368" 
d="M364 544h-90v-544h-180v544h-90v156h360v-156z" />
    <glyph glyph-name="U" unicode="U" horiz-adv-x="384" 
d="M186 700v-538q0 -16 6 -16t6 16v538h180v-524q0 -90 -49 -138t-140 -48q-90 0 -136.5 47.5t-46.5 138.5v524h180z" />
    <glyph glyph-name="V" unicode="V" horiz-adv-x="378" 
d="M183 700v-499h12v499h180l-48 -700h-280l-44 700h180z" />
    <glyph glyph-name="W" unicode="W" horiz-adv-x="506" 
d="M183 700l-10 -386h12l10 386h116l10 -386h12l-10 386h180l-48 -700h-198v247h-12v-247h-198l-44 700h180z" />
    <glyph glyph-name="X" unicode="X" horiz-adv-x="394" 
d="M191 429h13v271h187l-34 -352l34 -348h-188v273h-12v-273h-188l34 348l-34 352h188v-271z" />
    <glyph glyph-name="Y" unicode="Y" horiz-adv-x="378" 
d="M183 700v-263h12v263h180l-98 -510v-190h-180v190l-94 510h180z" />
    <glyph glyph-name="Z" unicode="Z" horiz-adv-x="338" 
d="M324 700v-157l-137 -378l7 -9h141v-156h-332v156l138 379l-8 9h-120v156h311z" />
    <glyph glyph-name="bracketleft" unicode="[" horiz-adv-x="252" 
d="M6 -155v875h240v-156h-60v-563h60v-156h-240z" />
    <glyph glyph-name="backslash" unicode="\" horiz-adv-x="260" 
d="M6 730h160l88 -810h-160z" />
    <glyph glyph-name="bracketright" unicode="]" horiz-adv-x="252" 
d="M246 719.99v-874.946h-239.985v155.99h59.9971v562.966h-59.9971v155.99h239.985z" />
    <glyph glyph-name="asciicircum" unicode="^" horiz-adv-x="285" 
d="M149 470v182h-12v-182h-130l59 230h154l59 -230h-130z" />
    <glyph glyph-name="underscore" unicode="_" horiz-adv-x="302" 
d="M296 -136h-290v136h290v-136z" />
    <glyph glyph-name="grave" unicode="`" horiz-adv-x="171" 
d="M55 563l-49 137h130l29 -137h-110z" />
    <glyph glyph-name="a" unicode="a" 
d="M188 358q0 16 -6 16t-6 -16v-67h-170v57q0 81 46 126.5t128 45.5t130 -46t48 -126v-348h-170v38h-4q-38 -48 -87 -48q-40 0 -65.5 28t-25.5 73v83q0 21 8 39.5t22 32t33 21.5t41 8h78v83zM188 193h-7q-5 0 -5 -8v-55q0 -8 5 -8q4 0 7 5v66z" />
    <glyph glyph-name="b" unicode="b" 
d="M6 720h170v-254h12q26 54 82 54q41 0 64.5 -29.5t23.5 -91.5v-271q0 -64 -25 -101t-67 -37q-25 0 -45.5 13.5t-32.5 40.5h-12v-44h-170v720zM176 144q3 -5 7 -5q5 0 5 10v214q0 8 -5 8q-4 0 -7 -5v-222z" />
    <glyph glyph-name="c" unicode="c" 
d="M176 152q0 -16 6 -16t6 16v93h170v-83q0 -80 -48 -126t-130 -46t-128 45.5t-46 126.5v186q0 81 46 126.5t128 45.5t130 -46t48 -126v-83h-170v93q0 16 -6 16t-6 -16v-206z" />
    <glyph glyph-name="d" unicode="d" 
d="M188 0v45h-12q-14 -27 -34.5 -41t-41.5 -14q-18 0 -34.5 9.5t-30 28.5t-21.5 48t-8 67v260q0 31 7.5 53.5t20 36.5t28.5 21t32 7q26 0 48.5 -15t33.5 -41h12v255h170v-720h-170zM188 366q-3 5 -7 5q-5 0 -5 -8v-213q0 -9 5 -9q4 0 7 5v220z" />
    <glyph glyph-name="e" unicode="e" 
d="M358 195v-33q0 -80 -48 -126t-130 -46t-128 45.5t-46 126.5v186q0 81 46 126.5t128 45.5t130 -46t48 -126v-133h-182v-63q0 -16 6 -16t6 16v43h170zM176 305h12v53q0 16 -6 16t-6 -16v-53z" />
    <glyph glyph-name="f" unicode="f" horiz-adv-x="281" 
d="M40 540q0 51 11 85.5t31 55.5t48.5 30t63.5 9q41 0 87 -9v-145q-7 1 -13.5 2t-13.5 1q-17 0 -30.5 -8t-13.5 -31v-20h71v-146h-71v-364h-170v364h-40v146h40v30z" />
    <glyph glyph-name="g" unicode="g" 
d="M358 -58q0 -73 -45 -112.5t-130 -39.5t-131 40t-46 112v32h170v-22q0 -16 6 -16t6 18v90h-12q-12 -26 -32.5 -40t-44.5 -14q-43 0 -68 37t-25 101v261q0 62 24 96.5t67 34.5q25 0 45.5 -13t33.5 -41h12v44h170v-568zM188 364q-3 6 -7 6q-5 0 -5 -9v-208q0 -14 5 -14
q4 0 7 7v218z" />
    <glyph glyph-name="h" unicode="h" 
d="M6 720h170v-254h12q26 54 79 54q18 0 34.5 -7t29 -23t20 -41t7.5 -60v-389h-170v362q0 8 -5 8q-4 0 -7 -5v-365h-170v720z" />
    <glyph glyph-name="i" unicode="i" horiz-adv-x="184" 
d="M1 619q0 42 24 61.5t66 19.5t67 -19.5t25 -61.5t-24.5 -61.5t-66.5 -19.5t-66.5 19.5t-24.5 61.5zM177 510v-510h-170v510h170z" />
    <glyph glyph-name="j" unicode="j" horiz-adv-x="183" 
d="M0 620q0 42 24 61.5t66 19.5t67 -19.5t25 -61.5t-24.5 -61.5t-66.5 -19.5t-66.5 19.5t-24.5 61.5zM176 -29q0 -93 -40 -137t-108 -44q-32 0 -68 9v146q3 -1 6.5 -1h6.5q14 0 23.5 5.5t9.5 19.5v541h170v-539z" />
    <glyph glyph-name="k" unicode="k" horiz-adv-x="356" 
d="M176 349h12l6 161h166l-39 -242l45 -268h-166l-12 184h-12v-184h-170v720h170v-371z" />
    <glyph glyph-name="l" unicode="l" horiz-adv-x="182" 
d="M6 720h170v-720h-170v720z" />
    <glyph glyph-name="m" unicode="m" horiz-adv-x="546" 
d="M6 510h170v-44h12q29 54 76 54q26 0 45.5 -14t31.5 -40h12q14 27 37 40.5t49 13.5q19 0 37 -8t32.5 -24.5t23 -41t8.5 -57.5v-389h-170v363q0 8 -4 8q-3 0 -8 -5v-366h-170v363q0 8 -5 8q-2 0 -7 -5v-366h-170v510z" />
    <glyph glyph-name="n" unicode="n" 
d="M6 510h170v-44h12q28 54 79 54q18 0 34.5 -7t29 -23t20 -41t7.5 -60v-389h-170v364q0 8 -5 8q-4 0 -7 -5v-367h-170v510z" />
    <glyph glyph-name="o" unicode="o" 
d="M6 348q0 75 43.5 123.5t130.5 48.5q44 0 77 -13t55.5 -36t34 -54.5t11.5 -68.5v-186q0 -37 -11.5 -68.5t-34 -54.5t-55.5 -36t-77 -13q-87 0 -130.5 48.5t-43.5 123.5v186zM176 152q0 -16 6 -16t6 16v206q0 16 -6 16t-6 -16v-206z" />
    <glyph glyph-name="p" unicode="p" 
d="M176 510v-54h12q12 20 22.5 32.5t20 19.5t18 9.5t17.5 2.5q43 0 67.5 -38.5t24.5 -102.5v-252q0 -63 -23.5 -100t-61.5 -37q-23 0 -46 15t-39 49h-12v-254h-170v710h170zM176 153q5 -5 7 -5q5 0 5 10v194q0 8 -5 8q-2 0 -7 -5v-202z" />
    <glyph glyph-name="q" unicode="q" 
d="M358 -200h-170v254h-12q-16 -34 -39 -49t-46 -15q-38 0 -61.5 37t-23.5 100v252q0 64 24.5 102.5t67.5 38.5q9 0 17.5 -2.5t18 -9.5t20 -19.5t22.5 -32.5h12v54h170v-710zM188 355q-3 5 -7 5q-5 0 -5 -8v-194q0 -10 5 -10q4 0 7 5v202z" />
    <glyph glyph-name="r" unicode="r" horiz-adv-x="286" 
d="M176 446h4q10 32 32.5 53t54.5 21q9 0 13 -1v-169q-7 1 -13.5 1.5t-14.5 0.5q-41 0 -58.5 -20.5t-17.5 -61.5v-270h-170v510h170v-64z" />
    <glyph glyph-name="s" unicode="s" 
d="M188 336v22q0 15 -6 15t-6 -15v-1q0 -14 5 -20.5t22 -14.5l71 -35q42 -21 62.5 -49.5t20.5 -79.5v-16q0 -30 -11.5 -57.5t-34 -48.5t-56 -33.5t-76.5 -12.5t-75 12.5t-54 35t-33 52.5t-11 64v20h170v-20q0 -15 6 -15t6 15v1q0 14 -5.5 20.5t-25.5 15.5l-72 33
q-43 20 -60.5 48.5t-17.5 79.5v16q0 30 11 57.5t33 48.5t54.5 33.5t75.5 12.5t76 -13t55.5 -35t34 -51.5t11.5 -63.5v-21h-170z" />
    <glyph glyph-name="t" unicode="t" horiz-adv-x="285" 
d="M0 510h40v110l170 10v-120h71v-146h-71v-184q0 -23 13.5 -31t30.5 -8q7 0 13.5 1t13.5 2v-145q-46 -9 -87 -9q-35 0 -63.5 8.5t-48.5 29.5t-31 55.5t-11 86.5v194h-40v146z" />
    <glyph glyph-name="u" unicode="u" 
d="M358 0h-170v44h-12q-28 -54 -79 -54q-37 0 -64 30.5t-27 100.5v389h170v-368q0 -8 5 -8q4 0 7 5v371h170v-510z" />
    <glyph glyph-name="v" unicode="v" horiz-adv-x="360" 
d="M174 510v-309h12v309h170l-56 -510h-240l-56 510h170z" />
    <glyph glyph-name="w" unicode="w" horiz-adv-x="488" 
d="M174 510l-10 -269h12l10 269h116l10 -269h12l-10 269h170l-56 -510h-178v164h-12v-164h-178l-56 510h170z" />
    <glyph glyph-name="x" unicode="x" horiz-adv-x="363" 
d="M175 313h13v197h175l-27 -256l26 -254h-175v199h-12v-199h-175l27 254l-27 256h175v-197z" />
    <glyph glyph-name="y" unicode="y" 
d="M358 -58q0 -73 -45 -112.5t-130 -39.5t-131 40t-46 112v32h170v-22q0 -16 6 -16t6 18v90h-12q-28 -54 -79 -54q-37 0 -64 30.5t-27 100.5v389h170v-368q0 -8 5 -8q4 0 7 5v371h170v-568z" />
    <glyph glyph-name="z" unicode="z" horiz-adv-x="313" 
d="M6 0v145l108 208l-5 11h-98v146h289v-145l-108 -209l6 -10h109v-146h-301z" />
    <glyph glyph-name="braceleft" unicode="{" horiz-adv-x="348" 
d="M256 416q0 -27 -4.5 -50.5t-15 -40.5t-28.5 -26.5t-46 -9.5v-12q28 0 46 -9.5t28.5 -26.5t15 -40.5t4.5 -50.5v-83q0 -27 2.5 -44t10 -26t20.5 -12.5t33 -3.5h19v-156h-82q-89 0 -136 47t-47 138v140q0 31 -12.5 47t-57.5 16v140q45 0 57.5 16t12.5 47v139q0 91 47 138
t136 47h82v-156h-19q-20 0 -33 -3.5t-20.5 -12.5t-10 -26t-2.5 -44v-82z" />
    <glyph glyph-name="bar" unicode="|" horiz-adv-x="192" 
d="M6 -155v875h180v-875h-180z" />
    <glyph glyph-name="braceright" unicode="}" horiz-adv-x="348" 
d="M91.0156 149.025q0 26.998 4.5 50.4971q4.49902 23.498 14.999 40.4971q10.499 16.999 28.498 26.499q17.999 9.49902 45.9971 9.49902v11.999q-27.998 0 -45.9971 9.5q-17.999 9.49902 -28.498 26.498q-10.5 16.999 -14.999 40.498q-4.5 23.498 -4.5 50.4961v82.9951
q0 26.998 -2.5 43.9971t-9.99902 25.999q-7.5 8.99902 -20.499 12.499t-32.998 3.5h-18.999v155.99h81.9951q88.9951 0 135.992 -46.9971t46.9971 -137.991v-139.992q0 -30.998 12.499 -46.9971t57.4961 -15.999v-139.991q-44.9971 0 -57.4961 -15.999t-12.499 -46.9971
v-138.991q0 -90.9951 -46.9971 -137.992t-135.992 -46.9971h-81.9951v155.99h18.999q19.999 0 32.998 3.5t20.499 12.5q7.49902 8.99902 9.99902 25.998t2.5 43.9971v81.9951z" />
    <glyph glyph-name="asciitilde" unicode="~" horiz-adv-x="340" 
d="M333 408q0 -76 -20.5 -108.5t-63.5 -32.5q-21 0 -43 6t-42 13l-7 2q-17 6 -32 10t-26 4q-27 0 -27 -29v-2h-65v3q0 139 88 139q19 0 40 -5t41 -12l7 -2q17 -5 32.5 -9t27.5 -4q27 0 27 27v2h63v-2z" />
    <glyph glyph-name="exclamdown" unicode="&#xa1;" horiz-adv-x="193" 
d="M10 434q0 90 86 90q42 0 64 -23.5t22 -68.5q0 -43 -22 -66t-64 -23q-86 0 -86 91zM6 -101l20 427h140l20 -427v-100h-180v100z" />
    <glyph glyph-name="cent" unicode="&#xa2;" 
d="M176 152q0 -16 6 -16t6 16v93h170v-83q0 -60 -27.5 -101.5t-77.5 -58.5l9 -102h-160l9 100q-51 17 -78 58.5t-27 103.5v186q0 62 27 103.5t78 58.5l-9 99h160l-9 -101q50 -17 77.5 -58.5t27.5 -101.5v-83h-170v93q0 16 -6 16t-6 -16v-206z" />
    <glyph glyph-name="sterling" unicode="&#xa3;" horiz-adv-x="394" 
d="M206 326h152v-126h-156q-5 -23 -13 -44h199v-156h-382v156q9 12 14.5 22.5t9.5 21.5h-24v126h30v261q0 61 44.5 92t128.5 31q86 0 132.5 -48t46.5 -137v-165h-170v178q0 16 -6 16t-6 -9v-219z" />
    <glyph glyph-name="currency" unicode="&#xa4;" horiz-adv-x="486" 
d="M6 700h474v-700h-474v700zM243 391l157 259h-314zM56 83l162 267l-162 267v-534zM430 83v534l-162 -267zM86 50h314l-157 259z" />
    <glyph glyph-name="yen" unicode="&#xa5;" horiz-adv-x="378" 
d="M183 700v-263h12v263h180l-64 -334h61v-110h-82l-3 -12h85v-110h-95v-134h-180v134h-91v110h81l-2 12h-79v110h59l-62 334h180z" />
    <glyph glyph-name="brokenbar" unicode="&#xa6;" horiz-adv-x="192" 
d="M6 307v413h180v-413h-180zM6 -155v410h180v-410h-180z" />
    <glyph glyph-name="section" unicode="&#xa7;" horiz-adv-x="365" 
d="M188 506v42q0 15 -6 15t-6 -15v-61q0 -14 5 -20.5t22 -14.5l71 -35q42 -21 62.5 -49.5t20.5 -79.5v-76q0 -29 -8.5 -53t-28.5 -43q19 -17 28 -40.5t9 -58.5v-76q0 -30 -11.5 -57.5t-34 -48.5t-56 -33.5t-76.5 -12.5t-75 12.5t-54 35t-33 52t-11 64.5v40h170v-40
q0 -15 6 -15t6 15v61q0 14 -5.5 20.5t-25.5 15.5l-72 33q-43 20 -60.5 48.5t-17.5 79.5v76q0 26 9 49.5t28 43.5q-20 17 -28.5 41.5t-8.5 60.5v76q0 30 11 57.5t33 48.5t54.5 33.5t75.5 12.5t76 -13t55.5 -35t34 -51.5t11.5 -63.5v-41h-170zM177 204q8 5 9.5 10.5t1.5 9.5
v61q0 8 -1 11q-8 -3 -9.5 -8t-1.5 -11v-61q0 -8 1 -12z" />
    <glyph glyph-name="dieresis" unicode="&#xa8;" horiz-adv-x="302" 
d="M6 632q0 34 14.5 53.5t55.5 19.5t56.5 -20t15.5 -54t-15 -53.5t-56 -19.5t-56 19.5t-15 54.5zM154 632q0 34 14.5 53.5t55.5 19.5t56.5 -20t15.5 -54t-15 -53.5t-56 -19.5t-56 19.5t-15 54.5z" />
    <glyph glyph-name="copyright" unicode="&#xa9;" horiz-adv-x="629" 
d="M7 395q0 161 71 238t230 77q83 0 143 -20.5t98 -60t56 -98.5t18 -136v-89q0 -77 -17 -136t-54.5 -99t-97 -60.5t-144.5 -20.5q-83 0 -141 20t-94 60.5t-52 100.5t-16 141v83zM132 293q0 -55 10.5 -92.5t32.5 -61t56.5 -34t83.5 -10.5t83.5 10.5t56.5 34t32.5 61
t10.5 92.5v115q0 55 -10.5 92.5t-32.5 60.5t-56.5 33t-83.5 10t-83.5 -10t-56.5 -33t-32.5 -60.5t-10.5 -92.5v-115zM309 274q0 -16 6 -16t6 16v67h160v-57q0 -40 -7.5 -72t-26.5 -54.5t-51.5 -35t-81.5 -12.5q-48 0 -80 12t-50.5 34.5t-26.5 55t-8 72.5v131q0 40 6.5 72.5
t24.5 55t50.5 34.5t84.5 12q53 0 85.5 -12.5t50.5 -35t24 -54.5t6 -72v-54h-160v64q0 16 -6 16t-6 -16v-151z" />
    <glyph glyph-name="ordfeminine" unicode="&#xaa;" horiz-adv-x="224" 
d="M116 623q0 10 -4 10q-5 0 -5 -10v-40h-100v34q0 48 27.5 75.5t76.5 27.5q50 0 78.5 -27.5t28.5 -75.5v-209h-102v23h-9q-22 -29 -53 -29q-26 0 -36.5 17t-10.5 44v49q0 26 18 43.5t44 17.5h47v50zM116 524h-5q-4 0 -4 -5v-33q0 -5 4 -5t5 3v40z" />
    <glyph glyph-name="guillemotleft" unicode="&#xab;" horiz-adv-x="601" 
d="M294 79l-288 125v120l289 127v-160l-98 -25v-2l97 -25v-160zM594 79l-288 125v120l289 127v-160l-98 -25v-2l97 -25v-160z" />
    <glyph glyph-name="logicalnot" unicode="&#xac;" horiz-adv-x="486" 
d="M6 700h474v-700h-474v700zM243 391l157 259h-314zM56 83l162 267l-162 267v-534zM430 83v534l-162 -267zM86 50h314l-157 259z" />
    <glyph glyph-name="registered" unicode="&#xae;" horiz-adv-x="629" 
d="M7 395q0 161 71 238t230 77q83 0 143 -20.5t98 -60t56 -98.5t18 -136v-89q0 -77 -17 -136t-54.5 -99t-97 -60.5t-144.5 -20.5q-83 0 -141 20t-94 60.5t-52 100.5t-16 141v83zM132 293q0 -55 10.5 -92.5t32.5 -61t56.5 -34t83.5 -10.5t83.5 10.5t56.5 34t32.5 61
t10.5 92.5v115q0 55 -10.5 92.5t-32.5 60.5t-56.5 33t-83.5 10t-83.5 -10t-56.5 -33t-32.5 -60.5t-10.5 -92.5v-115zM316 558q54 0 83.5 -27.5t29.5 -84.5v-3q0 -27 -6 -46t-15 -31.5t-19.5 -18.5t-20.5 -6v-12q10 0 20.5 -7t19.5 -19.5t15 -31.5t6 -43v-5q0 -24 1 -44.5
t5 -40.5h-106q-4 20 -5 41t-1 45v54q0 7 -1.5 8.5t-6.5 1.5h-4v-150h-105v420h110zM311 382h4q5 0 6.5 1.5t1.5 7.5v64q0 6 -1.5 7.5t-6.5 1.5h-4v-82z" />
    <glyph glyph-name="macron" unicode="&#xaf;" horiz-adv-x="232" 
d="M226 567h-220v130h220v-130z" />
    <glyph glyph-name="degree" unicode="&#xb0;" horiz-adv-x="207" 
d="M6 636q0 42 24 68t72 26q49 0 74 -26.5t25 -67.5v-124q0 -42 -25 -68.5t-74 -26.5q-48 0 -72 26.5t-24 68.5v124zM97 506q0 -9 7 -9q6 0 6 9v135q0 9 -6 9q-7 0 -7 -9v-135z" />
    <glyph glyph-name="plusminus" unicode="&#xb1;" horiz-adv-x="378" 
d="M372 274h-113v-103h-140v103h-113v130h113v103h140v-103h113v-130zM372 0h-366v130h366v-130z" />
    <glyph glyph-name="twosuperior" unicode="&#xb2;" horiz-adv-x="218" 
d="M6 630q0 18 7 34t20.5 28.5t33 20t44.5 7.5q49 0 75 -27t26 -63v-15q0 -30 -7.5 -48t-18.5 -28t-24 -14t-24 -7h-2q-10 -2 -17 -5.5t-7 -11.5v-3h100v-86h-202v64q0 31 10.5 47.5t36.5 27.5l6 3q18 8 28.5 13.5t16 11t6.5 11t1 14.5v15q0 10 -1.5 12.5t-4.5 2.5
t-4.5 -2.5t-1.5 -12.5v-29h-97v40z" />
    <glyph glyph-name="threesuperior" unicode="&#xb3;" horiz-adv-x="217" 
d="M115 629q0 7 -6 7q-7 0 -7 -7v-16h-96v28q0 40 24.5 59.5t79.5 19.5q54 0 77.5 -19t23.5 -61v-4q0 -35 -16.5 -49.5t-35.5 -15.5v-8q19 0 35.5 -17t16.5 -52v-4q0 -41 -23.5 -59.5t-77.5 -18.5t-79 19.5t-25 59.5v28h96v-16q0 -7 7 -7q6 0 6 7v6q0 17 -4 22.5t-24 5.5
h-11v58h11q20 0 24 5.5t4 22.5v6z" />
    <glyph glyph-name="acute" unicode="&#xb4;" horiz-adv-x="171" 
d="M6 563l29 137h130l-49 -137h-110z" />
    <glyph glyph-name="paragraph" unicode="&#xb6;" horiz-adv-x="572" 
d="M386 -155v875h180v-875h-180zM186 -155v328q-47 0 -81 7.5t-56 35.5t-32.5 82.5t-10.5 148.5t10.5 148.5t32.5 82t56 35t81 7.5h180v-875h-180z" />
    <glyph glyph-name="periodcentered" unicode="&#xb7;" horiz-adv-x="185" 
d="M6 374q0 90 86 90q42 0 64 -23.5t22 -68.5q0 -43 -22 -66t-64 -23q-86 0 -86 91z" />
    <glyph glyph-name="cedilla" unicode="&#xb8;" horiz-adv-x="206" 
d="M43 0h66l-5 -50q48 0 71.5 -20t23.5 -46q0 -28 -28.5 -52t-87.5 -24q-16 0 -35.5 2t-40.5 6v63q15 -3 28 -3q18 0 30.5 5t12.5 13t-14 12t-37 4z" />
    <glyph glyph-name="onesuperior" unicode="&#xb9;" horiz-adv-x="137" 
d="M34 412v206l-4 7h-23v85h124v-298h-97z" />
    <glyph glyph-name="ordmasculine" unicode="&#xba;" horiz-adv-x="223" 
d="M6 617q0 45 26 74t78 29q53 0 80 -29t27 -74v-112q0 -45 -27 -74t-80 -29q-52 0 -78 29t-26 74v112zM106 499q0 -9 6 -9q5 0 5 9v124q0 9 -5 9q-6 0 -6 -9v-124z" />
    <glyph glyph-name="guillemotright" unicode="&#xbb;" horiz-adv-x="601" 
d="M306.018 451.005l287.982 -124.992v-119.993l-288.982 -126.992v159.99l97.9941 24.999v1.99902l-96.9941 24.999v159.99zM6.03613 451.005l287.982 -124.992v-119.993l-288.982 -126.992v159.99l97.9941 24.999v1.99902l-96.9941 24.999v159.99z" />
    <glyph glyph-name="onequarter" unicode="&#xbc;" horiz-adv-x="468" 
d="M194 0h-97l105 720h97zM34 412v206l-4 7h-23v85h124v-298h-97zM463 298v-298h-97v77h-102v221h97v-135h5v135h97z" />
    <glyph glyph-name="onehalf" unicode="&#xbd;" horiz-adv-x="466" 
d="M194 0h-97l105 720h97zM34 412v206l-4 7h-23v85h124v-298h-97zM254 218q0 18 7 34t20.5 28.5t33 20t44.5 7.5q49 0 75 -27t26 -63v-15q0 -30 -7.5 -48t-18.5 -28t-24 -14t-24 -7h-2q-10 -2 -17 -5.5t-7 -11.5v-3h100v-86h-202v64q0 31 10.5 47.5t36.5 27.5l6 3
q18 8 28.5 13.5t16 11t6.5 11t1 14.5v15q0 10 -1.5 12.5t-4.5 2.5t-4.5 -2.5t-1.5 -12.5v-29h-97v40z" />
    <glyph glyph-name="threequarters" unicode="&#xbe;" horiz-adv-x="528" 
d="M254 0h-97l105 720h97zM115 629q0 7 -6 7q-7 0 -7 -7v-16h-96v28q0 40 24.5 59.5t79.5 19.5q54 0 77.5 -19t23.5 -61v-4q0 -35 -16.5 -49.5t-35.5 -15.5v-8q19 0 35.5 -17t16.5 -52v-4q0 -41 -23.5 -59.5t-77.5 -18.5t-79 19.5t-25 59.5v28h96v-16q0 -7 7 -7q6 0 6 7v6
q0 17 -4 22.5t-24 5.5h-11v58h11q20 0 24 5.5t4 22.5v6zM523 298v-298h-97v77h-102v221h97v-135h5v135h97z" />
    <glyph glyph-name="questiondown" unicode="&#xbf;" horiz-adv-x="385" 
d="M112 435q0 91 86 91q42 0 64 -23.5t22 -68.5q0 -44 -22 -67t-64 -23q-86 0 -86 91zM378 -25q0 -89 -49 -137t-140 -48q-89 0 -136 47t-47 138v9q0 40 6 69t16 51.5t21.5 39.5t23.5 32l1 1q18 23 31 45.5t13 57.5v46h170v-35q0 -38 -5.5 -64.5t-14 -46t-19.5 -33.5
t-22 -26v-1q-17 -19 -29 -39.5t-12 -62.5v-56q0 -16 6 -16t6 16v108h180v-95z" />
    <glyph glyph-name="Agrave" unicode="&#xc0;" horiz-adv-x="378" 
d="M331 700l44 -700h-180v144h-12v-144h-180l48 700h280zM195 300v86h-12v-86h12zM138 740l-49 137h130l29 -137h-110z" />
    <glyph glyph-name="Aacute" unicode="&#xc1;" horiz-adv-x="378" 
d="M331 700l44 -700h-180v144h-12v-144h-180l48 700h280zM195 300v86h-12v-86h12zM130 740l29 137h130l-49 -137h-110z" />
    <glyph glyph-name="Acircumflex" unicode="&#xc2;" horiz-adv-x="378" 
d="M331 700l44 -700h-180v144h-12v-144h-180l48 700h280zM195 300v86h-12v-86h12zM89 740l40 137h120l40 -137h-92l-5 46h-6l-5 -46h-92z" />
    <glyph glyph-name="Atilde" unicode="&#xc3;" horiz-adv-x="378" 
d="M331 700l44 -700h-180v144h-12v-144h-180l48 700h280zM195 300v86h-12v-86h12zM286 872q0 -69 -12.5 -100.5t-37.5 -31.5q-13 0 -26 5.5t-25 11.5l-4 2q-11 5 -19.5 9t-15.5 4q-16 0 -16 -27v-1h-39v2q0 63 13.5 97t39.5 34q11 0 23.5 -5t24.5 -11l4 -2q11 -5 20 -8.5
t16 -3.5q16 0 16 25v2h38v-2z" />
    <glyph glyph-name="Adieresis" unicode="&#xc4;" horiz-adv-x="378" 
d="M331 700l44 -700h-180v144h-12v-144h-180l48 700h280zM195 300v86h-12v-86h12zM44 809q0 34 14.5 53.5t55.5 19.5t56.5 -20t15.5 -54t-15 -53.5t-56 -19.5t-56 19.5t-15 54.5zM192 809q0 34 14.5 53.5t55.5 19.5t56.5 -20t15.5 -54t-15 -53.5t-56 -19.5t-56 19.5
t-15 54.5z" />
    <glyph glyph-name="Aring" unicode="&#xc5;" horiz-adv-x="378" 
d="M331 700l44 -700h-180v144h-12v-144h-180l48 700h280zM195 300v86h-12v-86h12zM103 809q0 38 23 55.5t62 17.5q40 0 63.5 -18t23.5 -55q0 -38 -23 -56t-63 -18t-63 18t-23 56zM158 809q0 -25 31 -25t31 25q0 24 -31 24t-31 -24z" />
    <glyph glyph-name="AE" unicode="&#xc6;" horiz-adv-x="461" 
d="M375 544v-97h80v-156h-80v-135h80v-156h-260v144h-12v-144h-180l48 700h404v-156h-80zM195 300v86h-12v-86h12z" />
    <glyph glyph-name="Ccedilla" unicode="&#xc7;" horiz-adv-x="384" 
d="M186 162q0 -16 6 -16t6 16v178h180v-164q0 -90 -49 -138t-140 -48q-89 0 -136 47.5t-47 138.5v349q0 91 47 138t136 47q91 0 140 -48t49 -137v-165h-180v178q0 16 -6 16t-6 -16v-376zM161 0h66l-5 -50q48 0 71.5 -20t23.5 -46q0 -28 -28.5 -52t-87.5 -24q-16 0 -35.5 2
t-40.5 6v63q15 -3 28 -3q18 0 30.5 5t12.5 13t-14 12t-37 4z" />
    <glyph glyph-name="Egrave" unicode="&#xc8;" horiz-adv-x="272" 
d="M186 544v-97h80v-156h-80v-135h80v-156h-260v700h260v-156h-80zM85 740l-49 137h130l29 -137h-110z" />
    <glyph glyph-name="Eacute" unicode="&#xc9;" horiz-adv-x="272" 
d="M186 544v-97h80v-156h-80v-135h80v-156h-260v700h260v-156h-80zM77 740l29 137h130l-49 -137h-110z" />
    <glyph glyph-name="Ecircumflex" unicode="&#xca;" horiz-adv-x="272" 
d="M186 544v-97h80v-156h-80v-135h80v-156h-260v700h260v-156h-80zM36 740l40 137h120l40 -137h-92l-5 46h-6l-5 -46h-92z" />
    <glyph glyph-name="Edieresis" unicode="&#xcb;" horiz-adv-x="272" 
d="M186 544v-97h80v-156h-80v-135h80v-156h-260v700h260v-156h-80zM-9 809q0 34 14.5 53.5t55.5 19.5t56.5 -20t15.5 -54t-15 -53.5t-56 -19.5t-56 19.5t-15 54.5zM139 809q0 34 14.5 53.5t55.5 19.5t56.5 -20t15.5 -54t-15 -53.5t-56 -19.5t-56 19.5t-15 54.5z" />
    <glyph glyph-name="Igrave" unicode="&#xcc;" horiz-adv-x="192" 
d="M186 700v-700h-180v700h180zM45 740l-49 137h130l29 -137h-110z" />
    <glyph glyph-name="Iacute" unicode="&#xcd;" horiz-adv-x="192" 
d="M186 700v-700h-180v700h180zM37 740l29 137h130l-49 -137h-110z" />
    <glyph glyph-name="Icircumflex" unicode="&#xce;" horiz-adv-x="192" 
d="M186 700v-700h-180v700h180zM-4 740l40 137h120l40 -137h-92l-5 46h-6l-5 -46h-92z" />
    <glyph glyph-name="Idieresis" unicode="&#xcf;" horiz-adv-x="192" 
d="M186 700v-700h-180v700h180zM-49 809q0 34 14.5 53.5t55.5 19.5t56.5 -20t15.5 -54t-15 -53.5t-56 -19.5t-56 19.5t-15 54.5zM99 809q0 34 14.5 53.5t55.5 19.5t56.5 -20t15.5 -54t-15 -53.5t-56 -19.5t-56 19.5t-15 54.5z" />
    <glyph glyph-name="Eth" unicode="&#xd0;" horiz-adv-x="406" 
d="M212 700q90 0 139 -43.5t49 -131.5v-350q0 -89 -49 -132t-139 -43h-184v290h-21v116h21v294h184zM209 406h8v-116h-8v-134h2q7 0 8 2.5t1 13.5v356q0 11 -1 13.5t-8 2.5h-2v-138z" />
    <glyph glyph-name="Ntilde" unicode="&#xd1;" horiz-adv-x="400" 
d="M394 700v-700h-193l-46 380h-10l41 -380h-180v700h193l50 -384h10l-45 384h180zM296 872q0 -69 -12.5 -100.5t-37.5 -31.5q-13 0 -26 5.5t-25 11.5l-4 2q-11 5 -19.5 9t-15.5 4q-16 0 -16 -27v-1h-39v2q0 63 13.5 97t39.5 34q11 0 23.5 -5t24.5 -11l4 -2q11 -5 20 -8.5
t16 -3.5q16 0 16 25v2h38v-2z" />
    <glyph glyph-name="Ograve" unicode="&#xd2;" horiz-adv-x="384" 
d="M6 525q0 91 47 138t136 47q91 0 140 -48t49 -137v-349q0 -90 -49 -138t-140 -48q-89 0 -136 47.5t-47 138.5v349zM186 162q0 -16 6 -16t6 16v376q0 16 -6 16t-6 -16v-376zM141 740l-49 137h130l29 -137h-110z" />
    <glyph glyph-name="Oacute" unicode="&#xd3;" horiz-adv-x="384" 
d="M6 525q0 91 47 138t136 47q91 0 140 -48t49 -137v-349q0 -90 -49 -138t-140 -48q-89 0 -136 47.5t-47 138.5v349zM186 162q0 -16 6 -16t6 16v376q0 16 -6 16t-6 -16v-376zM133 740l29 137h130l-49 -137h-110z" />
    <glyph glyph-name="Ocircumflex" unicode="&#xd4;" horiz-adv-x="384" 
d="M6 525q0 91 47 138t136 47q91 0 140 -48t49 -137v-349q0 -90 -49 -138t-140 -48q-89 0 -136 47.5t-47 138.5v349zM186 162q0 -16 6 -16t6 16v376q0 16 -6 16t-6 -16v-376zM92 740l40 137h120l40 -137h-92l-5 46h-6l-5 -46h-92z" />
    <glyph glyph-name="Otilde" unicode="&#xd5;" horiz-adv-x="384" 
d="M6 525q0 91 47 138t136 47q91 0 140 -48t49 -137v-349q0 -90 -49 -138t-140 -48q-89 0 -136 47.5t-47 138.5v349zM186 162q0 -16 6 -16t6 16v376q0 16 -6 16t-6 -16v-376zM289 872q0 -69 -12.5 -100.5t-37.5 -31.5q-13 0 -26 5.5t-25 11.5l-4 2q-11 5 -19.5 9t-15.5 4
q-16 0 -16 -27v-1h-39v2q0 63 13.5 97t39.5 34q11 0 23.5 -5t24.5 -11l4 -2q11 -5 20 -8.5t16 -3.5q16 0 16 25v2h38v-2z" />
    <glyph glyph-name="Odieresis" unicode="&#xd6;" horiz-adv-x="384" 
d="M6 525q0 91 47 138t136 47q91 0 140 -48t49 -137v-349q0 -90 -49 -138t-140 -48q-89 0 -136 47.5t-47 138.5v349zM186 162q0 -16 6 -16t6 16v376q0 16 -6 16t-6 -16v-376zM47 809q0 34 14.5 53.5t55.5 19.5t56.5 -20t15.5 -54t-15 -53.5t-56 -19.5t-56 19.5t-15 54.5z
M195 809q0 34 14.5 53.5t55.5 19.5t56.5 -20t15.5 -54t-15 -53.5t-56 -19.5t-56 19.5t-15 54.5z" />
    <glyph glyph-name="multiply" unicode="&#xd7;" horiz-adv-x="406" 
d="M400 437l-98 -98l98 -98l-99 -99l-98 98l-98 -98l-99 99l98 98l-98 97l99 100l98 -98l98 98z" />
    <glyph glyph-name="Oslash" unicode="&#xd8;" horiz-adv-x="384" 
d="M6 525q0 91 47 138t136 47q86 0 135 -44l21 44l33 -16l-28 -58q28 -45 28 -111v-349q0 -90 -49 -138t-140 -48q-83 0 -130 42l-20 -42l-33 16l28 56q-28 44 -28 114v349zM186 379l12 25v134q0 16 -6 16t-6 -16v-159zM186 162q0 -16 6 -16t6 16v158l-12 -25v-133z" />
    <glyph glyph-name="Ugrave" unicode="&#xd9;" horiz-adv-x="384" 
d="M186 700v-538q0 -16 6 -16t6 16v538h180v-524q0 -90 -49 -138t-140 -48q-90 0 -136.5 47.5t-46.5 138.5v524h180zM141 740l-49 137h130l29 -137h-110z" />
    <glyph glyph-name="Uacute" unicode="&#xda;" horiz-adv-x="384" 
d="M186 700v-538q0 -16 6 -16t6 16v538h180v-524q0 -90 -49 -138t-140 -48q-90 0 -136.5 47.5t-46.5 138.5v524h180zM133 740l29 137h130l-49 -137h-110z" />
    <glyph glyph-name="Ucircumflex" unicode="&#xdb;" horiz-adv-x="384" 
d="M186 700v-538q0 -16 6 -16t6 16v538h180v-524q0 -90 -49 -138t-140 -48q-90 0 -136.5 47.5t-46.5 138.5v524h180zM92 740l40 137h120l40 -137h-92l-5 46h-6l-5 -46h-92z" />
    <glyph glyph-name="Udieresis" unicode="&#xdc;" horiz-adv-x="384" 
d="M186 700v-538q0 -16 6 -16t6 16v538h180v-524q0 -90 -49 -138t-140 -48q-90 0 -136.5 47.5t-46.5 138.5v524h180zM47 809q0 34 14.5 53.5t55.5 19.5t56.5 -20t15.5 -54t-15 -53.5t-56 -19.5t-56 19.5t-15 54.5zM195 809q0 34 14.5 53.5t55.5 19.5t56.5 -20t15.5 -54
t-15 -53.5t-56 -19.5t-56 19.5t-15 54.5z" />
    <glyph glyph-name="Yacute" unicode="&#xdd;" horiz-adv-x="378" 
d="M183 700v-263h12v263h180l-98 -510v-190h-180v190l-94 510h180zM130 740l29 137h130l-49 -137h-110z" />
    <glyph glyph-name="Thorn" unicode="&#xde;" horiz-adv-x="384" 
d="M186 700v-103h4q91 0 139.5 -60.5t48.5 -192.5v-2q0 -68 -11.5 -114t-35 -73.5t-59.5 -39.5t-84 -12h-2v-103h-180v700h180zM186 259h2q8 0 9 2.5t1 13.5v150q0 11 -1 13.5t-9 2.5h-2v-182z" />
    <glyph glyph-name="germandbls" unicode="&#xdf;" horiz-adv-x="392" 
d="M6 523q0 83 40 130t130 47h14q91 0 139.5 -44.5t48.5 -127.5v-5q0 -39 -9.5 -69t-24.5 -50t-33 -30t-35 -10v-12q16 0 35.5 -11.5t36.5 -33.5t28.5 -52.5t11.5 -69.5v-13q0 -81 -47 -126.5t-139 -45.5h-4v156h3q7 0 8 8t1 23v62q0 11 -1 21t-8 10h-3v156h3q7 0 8 8.5
t1 22.5v57q0 14 -4.5 17t-7.5 3h-2q-3 0 -6.5 -3t-3.5 -17v-524h-180v523z" />
    <glyph glyph-name="agrave" unicode="&#xe0;" 
d="M188 358q0 16 -6 16t-6 -16v-67h-170v57q0 81 46 126.5t128 45.5t130 -46t48 -126v-348h-170v38h-4q-38 -48 -87 -48q-40 0 -65.5 28t-25.5 73v83q0 21 8 39.5t22 32t33 21.5t41 8h78v83zM188 193h-7q-5 0 -5 -8v-55q0 -8 5 -8q4 0 7 5v66zM129 550l-49 137h130l29 -137
h-110z" />
    <glyph glyph-name="aacute" unicode="&#xe1;" 
d="M188 358q0 16 -6 16t-6 -16v-67h-170v57q0 81 46 126.5t128 45.5t130 -46t48 -126v-348h-170v38h-4q-38 -48 -87 -48q-40 0 -65.5 28t-25.5 73v83q0 21 8 39.5t22 32t33 21.5t41 8h78v83zM188 193h-7q-5 0 -5 -8v-55q0 -8 5 -8q4 0 7 5v66zM121 550l29 137h130l-49 -137
h-110z" />
    <glyph glyph-name="acircumflex" unicode="&#xe2;" 
d="M188 358q0 16 -6 16t-6 -16v-67h-170v57q0 81 46 126.5t128 45.5t130 -46t48 -126v-348h-170v38h-4q-38 -48 -87 -48q-40 0 -65.5 28t-25.5 73v83q0 21 8 39.5t22 32t33 21.5t41 8h78v83zM188 193h-7q-5 0 -5 -8v-55q0 -8 5 -8q4 0 7 5v66zM80 550l40 137h120l40 -137
h-92l-5 46h-6l-5 -46h-92z" />
    <glyph glyph-name="atilde" unicode="&#xe3;" 
d="M188 358q0 16 -6 16t-6 -16v-67h-170v57q0 81 46 126.5t128 45.5t130 -46t48 -126v-348h-170v38h-4q-38 -48 -87 -48q-40 0 -65.5 28t-25.5 73v83q0 21 8 39.5t22 32t33 21.5t41 8h78v83zM188 193h-7q-5 0 -5 -8v-55q0 -8 5 -8q4 0 7 5v66zM277 682q0 -69 -12.5 -100.5
t-37.5 -31.5q-13 0 -26 5.5t-25 11.5l-4 2q-11 5 -19.5 9t-15.5 4q-16 0 -16 -27v-1h-39v2q0 63 13.5 97t39.5 34q11 0 23.5 -5t24.5 -11l4 -2q11 -5 20 -8.5t16 -3.5q16 0 16 25v2h38v-2z" />
    <glyph glyph-name="adieresis" unicode="&#xe4;" 
d="M188 358q0 16 -6 16t-6 -16v-67h-170v57q0 81 46 126.5t128 45.5t130 -46t48 -126v-348h-170v38h-4q-38 -48 -87 -48q-40 0 -65.5 28t-25.5 73v83q0 21 8 39.5t22 32t33 21.5t41 8h78v83zM188 193h-7q-5 0 -5 -8v-55q0 -8 5 -8q4 0 7 5v66zM35 619q0 34 14.5 53.5
t55.5 19.5t56.5 -20t15.5 -54t-15 -53.5t-56 -19.5t-56 19.5t-15 54.5zM183 619q0 34 14.5 53.5t55.5 19.5t56.5 -20t15.5 -54t-15 -53.5t-56 -19.5t-56 19.5t-15 54.5z" />
    <glyph glyph-name="aring" unicode="&#xe5;" 
d="M188 358q0 16 -6 16t-6 -16v-67h-170v57q0 81 46 126.5t128 45.5t130 -46t48 -126v-348h-170v38h-4q-38 -48 -87 -48q-40 0 -65.5 28t-25.5 73v83q0 21 8 39.5t22 32t33 21.5t41 8h78v83zM188 193h-7q-5 0 -5 -8v-55q0 -8 5 -8q4 0 7 5v66zM94 619q0 38 23 55.5t62 17.5
q40 0 63.5 -18t23.5 -55q0 -38 -23 -56t-63 -18t-63 18t-23 56zM149 619q0 -25 31 -25t31 25q0 24 -31 24t-31 -24z" />
    <glyph glyph-name="ae" unicode="&#xe6;" horiz-adv-x="546" 
d="M188 358q0 16 -6 16t-6 -16v-67h-170v57q0 81 46 126.5t128 45.5q26 0 46 -5t39 -14h12q18 9 38.5 14t46.5 5q82 0 130 -46t48 -126v-133h-182v-63q0 -16 6 -16t6 16v43h170v-33q0 -80 -48 -126t-130 -46q-56 0 -92.5 21.5t-56.5 61.5h-12q-22 -44 -48 -63.5t-56 -19.5
q-40 0 -65.5 28t-25.5 73v83q0 21 8 39.5t22 32t33 21.5t41 8h78v83zM358 305h12v53q0 16 -6 16t-6 -16v-53zM188 193h-7q-5 0 -5 -8v-55q0 -8 5 -8q4 0 7 5v66z" />
    <glyph glyph-name="ccedilla" unicode="&#xe7;" 
d="M176 152q0 -16 6 -16t6 16v93h170v-83q0 -80 -48 -126t-130 -46t-128 45.5t-46 126.5v186q0 81 46 126.5t128 45.5t130 -46t48 -126v-83h-170v93q0 16 -6 16t-6 -16v-206zM151 0h66l-5 -50q48 0 71.5 -20t23.5 -46q0 -28 -28.5 -52t-87.5 -24q-16 0 -35.5 2t-40.5 6v63
q15 -3 28 -3q18 0 30.5 5t12.5 13t-14 12t-37 4z" />
    <glyph glyph-name="egrave" unicode="&#xe8;" 
d="M358 195v-33q0 -80 -48 -126t-130 -46t-128 45.5t-46 126.5v186q0 81 46 126.5t128 45.5t130 -46t48 -126v-133h-182v-63q0 -16 6 -16t6 16v43h170zM176 305h12v53q0 16 -6 16t-6 -16v-53zM129 550l-49 137h130l29 -137h-110z" />
    <glyph glyph-name="eacute" unicode="&#xe9;" 
d="M358 195v-33q0 -80 -48 -126t-130 -46t-128 45.5t-46 126.5v186q0 81 46 126.5t128 45.5t130 -46t48 -126v-133h-182v-63q0 -16 6 -16t6 16v43h170zM176 305h12v53q0 16 -6 16t-6 -16v-53zM121 550l29 137h130l-49 -137h-110z" />
    <glyph glyph-name="ecircumflex" unicode="&#xea;" 
d="M358 195v-33q0 -80 -48 -126t-130 -46t-128 45.5t-46 126.5v186q0 81 46 126.5t128 45.5t130 -46t48 -126v-133h-182v-63q0 -16 6 -16t6 16v43h170zM176 305h12v53q0 16 -6 16t-6 -16v-53zM80 550l40 137h120l40 -137h-92l-5 46h-6l-5 -46h-92z" />
    <glyph glyph-name="edieresis" unicode="&#xeb;" 
d="M358 195v-33q0 -80 -48 -126t-130 -46t-128 45.5t-46 126.5v186q0 81 46 126.5t128 45.5t130 -46t48 -126v-133h-182v-63q0 -16 6 -16t6 16v43h170zM176 305h12v53q0 16 -6 16t-6 -16v-53zM35 619q0 34 14.5 53.5t55.5 19.5t56.5 -20t15.5 -54t-15 -53.5t-56 -19.5
t-56 19.5t-15 54.5zM183 619q0 34 14.5 53.5t55.5 19.5t56.5 -20t15.5 -54t-15 -53.5t-56 -19.5t-56 19.5t-15 54.5z" />
    <glyph glyph-name="igrave" unicode="&#xec;" horiz-adv-x="184" 
d="M177 510v-510h-170v510h170zM41 550l-49 137h130l29 -137h-110z" />
    <glyph glyph-name="iacute" unicode="&#xed;" horiz-adv-x="184" 
d="M177 510v-510h-170v510h170zM33 550l29 137h130l-49 -137h-110z" />
    <glyph glyph-name="icircumflex" unicode="&#xee;" horiz-adv-x="184" 
d="M177 510v-510h-170v510h170zM-8 550l40 137h120l40 -137h-92l-5 46h-6l-5 -46h-92z" />
    <glyph glyph-name="idieresis" unicode="&#xef;" horiz-adv-x="302" 
d="M236 510v-510h-170v510h170zM6 619q0 34 14.5 53.5t55.5 19.5t56.5 -20t15.5 -54t-15 -53.5t-56 -19.5t-56 19.5t-15 54.5zM154 619q0 34 14.5 53.5t55.5 19.5t56.5 -20t15.5 -54t-15 -53.5t-56 -19.5t-56 19.5t-15 54.5z" />
    <glyph glyph-name="eth" unicode="&#xf0;" 
d="M6 354q0 38 11 68.5t28.5 52.5t39 33.5t42.5 11.5q23 0 43 -15.5t31 -49.5l11 3q-8 51 -22.5 89t-40.5 67l-71 -48l-23 32l63 43q-36 26 -91 42l15 37q76 -14 131 -43l68 46l22 -33l-52 -35q147 -99 147 -307v-186q0 -37 -11.5 -68.5t-34.5 -54.5t-57.5 -36t-79.5 -13
q-84 0 -126.5 41.5t-42.5 106.5v216zM176 152q0 -16 6 -16t6 16v206q0 16 -6 16t-6 -16v-206z" />
    <glyph glyph-name="ntilde" unicode="&#xf1;" 
d="M6 510h170v-44h12q28 54 79 54q18 0 34.5 -7t29 -23t20 -41t7.5 -60v-389h-170v364q0 8 -5 8q-4 0 -7 -5v-367h-170v510zM280 682q0 -69 -12.5 -100.5t-37.5 -31.5q-13 0 -26 5.5t-25 11.5l-4 2q-11 5 -19.5 9t-15.5 4q-16 0 -16 -27v-1h-39v2q0 63 13.5 97t39.5 34
q11 0 23.5 -5t24.5 -11l4 -2q11 -5 20 -8.5t16 -3.5q16 0 16 25v2h38v-2z" />
    <glyph glyph-name="ograve" unicode="&#xf2;" 
d="M6 348q0 75 43.5 123.5t130.5 48.5q44 0 77 -13t55.5 -36t34 -54.5t11.5 -68.5v-186q0 -37 -11.5 -68.5t-34 -54.5t-55.5 -36t-77 -13q-87 0 -130.5 48.5t-43.5 123.5v186zM176 152q0 -16 6 -16t6 16v206q0 16 -6 16t-6 -16v-206zM129 550l-49 137h130l29 -137h-110z" />
    <glyph glyph-name="oacute" unicode="&#xf3;" 
d="M6 348q0 75 43.5 123.5t130.5 48.5q44 0 77 -13t55.5 -36t34 -54.5t11.5 -68.5v-186q0 -37 -11.5 -68.5t-34 -54.5t-55.5 -36t-77 -13q-87 0 -130.5 48.5t-43.5 123.5v186zM176 152q0 -16 6 -16t6 16v206q0 16 -6 16t-6 -16v-206zM121 550l29 137h130l-49 -137h-110z" />
    <glyph glyph-name="ocircumflex" unicode="&#xf4;" 
d="M6 348q0 75 43.5 123.5t130.5 48.5q44 0 77 -13t55.5 -36t34 -54.5t11.5 -68.5v-186q0 -37 -11.5 -68.5t-34 -54.5t-55.5 -36t-77 -13q-87 0 -130.5 48.5t-43.5 123.5v186zM176 152q0 -16 6 -16t6 16v206q0 16 -6 16t-6 -16v-206zM80 550l40 137h120l40 -137h-92l-5 46
h-6l-5 -46h-92z" />
    <glyph glyph-name="otilde" unicode="&#xf5;" 
d="M6 348q0 75 43.5 123.5t130.5 48.5q44 0 77 -13t55.5 -36t34 -54.5t11.5 -68.5v-186q0 -37 -11.5 -68.5t-34 -54.5t-55.5 -36t-77 -13q-87 0 -130.5 48.5t-43.5 123.5v186zM176 152q0 -16 6 -16t6 16v206q0 16 -6 16t-6 -16v-206zM277 682q0 -69 -12.5 -100.5
t-37.5 -31.5q-13 0 -26 5.5t-25 11.5l-4 2q-11 5 -19.5 9t-15.5 4q-16 0 -16 -27v-1h-39v2q0 63 13.5 97t39.5 34q11 0 23.5 -5t24.5 -11l4 -2q11 -5 20 -8.5t16 -3.5q16 0 16 25v2h38v-2z" />
    <glyph glyph-name="odieresis" unicode="&#xf6;" 
d="M6 348q0 75 43.5 123.5t130.5 48.5q44 0 77 -13t55.5 -36t34 -54.5t11.5 -68.5v-186q0 -37 -11.5 -68.5t-34 -54.5t-55.5 -36t-77 -13q-87 0 -130.5 48.5t-43.5 123.5v186zM176 152q0 -16 6 -16t6 16v206q0 16 -6 16t-6 -16v-206zM35 619q0 34 14.5 53.5t55.5 19.5
t56.5 -20t15.5 -54t-15 -53.5t-56 -19.5t-56 19.5t-15 54.5zM183 619q0 34 14.5 53.5t55.5 19.5t56.5 -20t15.5 -54t-15 -53.5t-56 -19.5t-56 19.5t-15 54.5z" />
    <glyph glyph-name="divide" unicode="&#xf7;" horiz-adv-x="378" 
d="M372 279h-366v130h366v-130zM111.4 500.402q0 81.002 77.4023 81.002q37.8008 0 57.6016 -21.1504q19.7998 -21.1504 19.7998 -61.6523q0 -38.7002 -19.7998 -59.4014q-19.8008 -20.7002 -57.6016 -20.7002q-77.4023 0 -77.4023 81.9023zM111.4 187.402
q0 81.002 77.4023 81.002q37.8008 0 57.6016 -21.1504q19.7998 -21.1504 19.7998 -61.6523q0 -38.7002 -19.7998 -59.4014q-19.8008 -20.7002 -57.6016 -20.7002q-77.4023 0 -77.4023 81.9023z" />
    <glyph glyph-name="oslash" unicode="&#xf8;" 
d="M6 348q0 75 43.5 123.5t130.5 48.5q75 0 122 -39l24 40l32 -19l-31 -49q31 -41 31 -105v-186q0 -37 -11.5 -68.5t-34 -54.5t-55.5 -36t-77 -13q-38 0 -67.5 10t-50.5 27l-24 -37l-31 18l29 47q-30 44 -30 107v186zM176 279l12 19v60q0 16 -6 16t-6 -16v-79zM176 152
q0 -16 6 -16t6 16v78l-12 -19v-59z" />
    <glyph glyph-name="ugrave" unicode="&#xf9;" 
d="M358 0h-170v44h-12q-28 -54 -79 -54q-37 0 -64 30.5t-27 100.5v389h170v-368q0 -8 5 -8q4 0 7 5v371h170v-510zM129 550l-49 137h130l29 -137h-110z" />
    <glyph glyph-name="uacute" unicode="&#xfa;" 
d="M358 0h-170v44h-12q-28 -54 -79 -54q-37 0 -64 30.5t-27 100.5v389h170v-368q0 -8 5 -8q4 0 7 5v371h170v-510zM121 550l29 137h130l-49 -137h-110z" />
    <glyph glyph-name="ucircumflex" unicode="&#xfb;" 
d="M358 0h-170v44h-12q-28 -54 -79 -54q-37 0 -64 30.5t-27 100.5v389h170v-368q0 -8 5 -8q4 0 7 5v371h170v-510zM80 550l40 137h120l40 -137h-92l-5 46h-6l-5 -46h-92z" />
    <glyph glyph-name="udieresis" unicode="&#xfc;" 
d="M358 0h-170v44h-12q-28 -54 -79 -54q-37 0 -64 30.5t-27 100.5v389h170v-368q0 -8 5 -8q4 0 7 5v371h170v-510zM35 619q0 34 14.5 53.5t55.5 19.5t56.5 -20t15.5 -54t-15 -53.5t-56 -19.5t-56 19.5t-15 54.5zM183 619q0 34 14.5 53.5t55.5 19.5t56.5 -20t15.5 -54
t-15 -53.5t-56 -19.5t-56 19.5t-15 54.5z" />
    <glyph glyph-name="yacute" unicode="&#xfd;" 
d="M358 -58q0 -73 -45 -112.5t-130 -39.5t-131 40t-46 112v32h170v-22q0 -16 6 -16t6 18v90h-12q-28 -54 -79 -54q-37 0 -64 30.5t-27 100.5v389h170v-368q0 -8 5 -8q4 0 7 5v371h170v-568zM121 550l29 137h130l-49 -137h-110z" />
    <glyph glyph-name="thorn" unicode="&#xfe;" 
d="M6 720h170v-254h12q26 54 82 54q41 0 64.5 -29.5t23.5 -91.5v-271q0 -64 -25 -101t-67 -37q-25 0 -45.5 13.5t-32.5 40.5h-12v-254h-170v930zM176 144q3 -5 7 -5q5 0 5 10v214q0 8 -5 8q-4 0 -7 -5v-222z" />
    <glyph glyph-name="ydieresis" unicode="&#xff;" 
d="M358 -58q0 -73 -45 -112.5t-130 -39.5t-131 40t-46 112v32h170v-22q0 -16 6 -16t6 18v90h-12q-28 -54 -79 -54q-37 0 -64 30.5t-27 100.5v389h170v-368q0 -8 5 -8q4 0 7 5v371h170v-568zM35 619q0 34 14.5 53.5t55.5 19.5t56.5 -20t15.5 -54t-15 -53.5t-56 -19.5
t-56 19.5t-15 54.5zM183 619q0 34 14.5 53.5t55.5 19.5t56.5 -20t15.5 -54t-15 -53.5t-56 -19.5t-56 19.5t-15 54.5z" />
    <glyph glyph-name="Amacron" unicode="&#x100;" horiz-adv-x="378" 
d="M331 700l44 -700h-180v144h-12v-144h-180l48 700h280zM195 300v86h-12v-86h12zM299 744h-220v130h220v-130z" />
    <glyph glyph-name="amacron" unicode="&#x101;" 
d="M188 358q0 16 -6 16t-6 -16v-67h-170v57q0 81 46 126.5t128 45.5t130 -46t48 -126v-348h-170v38h-4q-38 -48 -87 -48q-40 0 -65.5 28t-25.5 73v83q0 21 8 39.5t22 32t33 21.5t41 8h78v83zM188 193h-7q-5 0 -5 -8v-55q0 -8 5 -8q4 0 7 5v66zM290 554h-220v130h220v-130z
" />
    <glyph glyph-name="Abreve" unicode="&#x102;" horiz-adv-x="378" 
d="M331 700l44 -700h-180v144h-12v-144h-180l48 700h280zM195 300v86h-12v-86h12zM167 877q0 -37 22 -37t22 37h100q0 -75 -31 -106t-91 -31t-91 31t-31 106h100z" />
    <glyph glyph-name="abreve" unicode="&#x103;" 
d="M188 358q0 16 -6 16t-6 -16v-67h-170v57q0 81 46 126.5t128 45.5t130 -46t48 -126v-348h-170v38h-4q-38 -48 -87 -48q-40 0 -65.5 28t-25.5 73v83q0 21 8 39.5t22 32t33 21.5t41 8h78v83zM188 193h-7q-5 0 -5 -8v-55q0 -8 5 -8q4 0 7 5v66zM158 687q0 -37 22 -37t22 37
h100q0 -75 -31 -106t-91 -31t-91 31t-31 106h100z" />
    <glyph glyph-name="Aogonek" unicode="&#x104;" horiz-adv-x="378" 
d="M331 700l44 -700h-180v144h-12v-144h-180l48 700h280zM195 300v86h-12v-86h12zM374 8v-7q-23 0 -36 -16.5t-13 -34.5q0 -14 8.5 -24t26.5 -10h6.5t7.5 1v-85q-16 -5 -30 -6.5t-27 -1.5q-51 0 -77.5 24t-26.5 56q0 18 9.5 36.5t29.5 33.5t50.5 24.5t71.5 9.5z" />
    <glyph glyph-name="aogonek" unicode="&#x105;" 
d="M188 358q0 16 -6 16t-6 -16v-67h-170v57q0 81 46 126.5t128 45.5t130 -46t48 -126v-348h-170v38h-4q-38 -48 -87 -48q-40 0 -65.5 28t-25.5 73v83q0 21 8 39.5t22 32t33 21.5t41 8h78v83zM188 193h-7q-5 0 -5 -8v-55q0 -8 5 -8q4 0 7 5v66zM357 8v-7q-23 0 -36 -16.5
t-13 -34.5q0 -14 8.5 -24t26.5 -10h6.5t7.5 1v-85q-16 -5 -30 -6.5t-27 -1.5q-51 0 -77.5 24t-26.5 56q0 18 9.5 36.5t29.5 33.5t50.5 24.5t71.5 9.5z" />
    <glyph glyph-name="Cacute" unicode="&#x106;" horiz-adv-x="384" 
d="M186 162q0 -16 6 -16t6 16v178h180v-164q0 -90 -49 -138t-140 -48q-89 0 -136 47.5t-47 138.5v349q0 91 47 138t136 47q91 0 140 -48t49 -137v-165h-180v178q0 16 -6 16t-6 -16v-376zM133 740l29 137h130l-49 -137h-110z" />
    <glyph glyph-name="cacute" unicode="&#x107;" 
d="M176 152q0 -16 6 -16t6 16v93h170v-83q0 -80 -48 -126t-130 -46t-128 45.5t-46 126.5v186q0 81 46 126.5t128 45.5t130 -46t48 -126v-83h-170v93q0 16 -6 16t-6 -16v-206zM121 550l29 137h130l-49 -137h-110z" />
    <glyph glyph-name="Ccircumflex" unicode="&#x108;" horiz-adv-x="384" 
d="M186 162q0 -16 6 -16t6 16v178h180v-164q0 -90 -49 -138t-140 -48q-89 0 -136 47.5t-47 138.5v349q0 91 47 138t136 47q91 0 140 -48t49 -137v-165h-180v178q0 16 -6 16t-6 -16v-376zM92 740l40 137h120l40 -137h-92l-5 46h-6l-5 -46h-92z" />
    <glyph glyph-name="ccircumflex" unicode="&#x109;" 
d="M176 152q0 -16 6 -16t6 16v93h170v-83q0 -80 -48 -126t-130 -46t-128 45.5t-46 126.5v186q0 81 46 126.5t128 45.5t130 -46t48 -126v-83h-170v93q0 16 -6 16t-6 -16v-206zM80 550l40 137h120l40 -137h-92l-5 46h-6l-5 -46h-92z" />
    <glyph glyph-name="Cdotaccent" unicode="&#x10a;" horiz-adv-x="384" 
d="M186 162q0 -16 6 -16t6 16v178h180v-164q0 -90 -49 -138t-140 -48q-89 0 -136 47.5t-47 138.5v349q0 91 47 138t136 47q91 0 140 -48t49 -137v-165h-180v178q0 16 -6 16t-6 -16v-376zM121 809q0 34 14.5 53.5t55.5 19.5t56.5 -20t15.5 -54t-15 -53.5t-56 -19.5t-56 19.5
t-15 54.5z" />
    <glyph glyph-name="cdotaccent" unicode="&#x10b;" 
d="M176 152q0 -16 6 -16t6 16v93h170v-83q0 -80 -48 -126t-130 -46t-128 45.5t-46 126.5v186q0 81 46 126.5t128 45.5t130 -46t48 -126v-83h-170v93q0 16 -6 16t-6 -16v-206zM109 619q0 34 14.5 53.5t55.5 19.5t56.5 -20t15.5 -54t-15 -53.5t-56 -19.5t-56 19.5t-15 54.5z
" />
    <glyph glyph-name="Ccaron" unicode="&#x10c;" horiz-adv-x="384" 
d="M186 162q0 -16 6 -16t6 16v178h180v-164q0 -90 -49 -138t-140 -48q-89 0 -136 47.5t-47 138.5v349q0 91 47 138t136 47q91 0 140 -48t49 -137v-165h-180v178q0 16 -6 16t-6 -16v-376zM292 878l-40 -137h-120l-40 137h92l5 -46h6l5 46h92z" />
    <glyph glyph-name="ccaron" unicode="&#x10d;" 
d="M176 152q0 -16 6 -16t6 16v93h170v-83q0 -80 -48 -126t-130 -46t-128 45.5t-46 126.5v186q0 81 46 126.5t128 45.5t130 -46t48 -126v-83h-170v93q0 16 -6 16t-6 -16v-206zM280 688l-40 -137h-120l-40 137h92l5 -46h6l5 46h92z" />
    <glyph glyph-name="Dcaron" unicode="&#x10e;" horiz-adv-x="384" 
d="M190 700q90 0 139 -43.5t49 -131.5v-350q0 -89 -49 -132t-139 -43h-184v700h184zM187 156h2q7 0 8 2.5t1 13.5v356q0 11 -1 13.5t-8 2.5h-2v-388zM282 878l-40 -137h-120l-40 137h92l5 -46h6l5 46h92z" />
    <glyph glyph-name="dcaron" unicode="&#x10f;" 
d="M188 0v45h-12q-14 -27 -34.5 -41t-41.5 -14q-18 0 -34.5 9.5t-30 28.5t-21.5 48t-8 67v260q0 31 7.5 53.5t20 36.5t28.5 21t32 7q26 0 48.5 -15t33.5 -41h12v255h170v-720h-170zM188 366q-3 5 -7 5q-5 0 -5 -8v-213q0 -9 5 -9q4 0 7 5v220zM390 720h116l-71 -247h-66z
" />
    <glyph glyph-name="Dcroat" unicode="&#x110;" horiz-adv-x="406" 
d="M212 700q90 0 139 -43.5t49 -131.5v-350q0 -89 -49 -132t-139 -43h-184v290h-21v116h21v294h184zM209 406h8v-116h-8v-134h2q7 0 8 2.5t1 13.5v356q0 11 -1 13.5t-8 2.5h-2v-138z" />
    <glyph glyph-name="dcroat" unicode="&#x111;" 
d="M188 0v45h-12q-14 -27 -34.5 -41t-41.5 -14q-18 0 -34.5 9.5t-30 28.5t-21.5 48t-8 67v260q0 31 7.5 53.5t20 36.5t28.5 21t32 7q26 0 48.5 -15t33.5 -41h12v255h170v-720h-170zM188 366q-3 5 -7 5q-5 0 -5 -8v-213q0 -9 5 -9q4 0 7 5v220zM388 559h-250v116h250v-116z
" />
    <glyph glyph-name="Emacron" unicode="&#x112;" horiz-adv-x="272" 
d="M186 544v-97h80v-156h-80v-135h80v-156h-260v700h260v-156h-80zM246 744h-220v130h220v-130z" />
    <glyph glyph-name="emacron" unicode="&#x113;" 
d="M358 195v-33q0 -80 -48 -126t-130 -46t-128 45.5t-46 126.5v186q0 81 46 126.5t128 45.5t130 -46t48 -126v-133h-182v-63q0 -16 6 -16t6 16v43h170zM176 305h12v53q0 16 -6 16t-6 -16v-53zM290 554h-220v130h220v-130z" />
    <glyph glyph-name="Ebreve" unicode="&#x114;" horiz-adv-x="272" 
d="M186 544v-97h80v-156h-80v-135h80v-156h-260v700h260v-156h-80zM114 877q0 -37 22 -37t22 37h100q0 -75 -31 -106t-91 -31t-91 31t-31 106h100z" />
    <glyph glyph-name="ebreve" unicode="&#x115;" 
d="M358 195v-33q0 -80 -48 -126t-130 -46t-128 45.5t-46 126.5v186q0 81 46 126.5t128 45.5t130 -46t48 -126v-133h-182v-63q0 -16 6 -16t6 16v43h170zM176 305h12v53q0 16 -6 16t-6 -16v-53zM158 687q0 -37 22 -37t22 37h100q0 -75 -31 -106t-91 -31t-91 31t-31 106h100z
" />
    <glyph glyph-name="Edotaccent" unicode="&#x116;" horiz-adv-x="272" 
d="M186 544v-97h80v-156h-80v-135h80v-156h-260v700h260v-156h-80zM65 809q0 34 14.5 53.5t55.5 19.5t56.5 -20t15.5 -54t-15 -53.5t-56 -19.5t-56 19.5t-15 54.5z" />
    <glyph glyph-name="edotaccent" unicode="&#x117;" 
d="M358 195v-33q0 -80 -48 -126t-130 -46t-128 45.5t-46 126.5v186q0 81 46 126.5t128 45.5t130 -46t48 -126v-133h-182v-63q0 -16 6 -16t6 16v43h170zM176 305h12v53q0 16 -6 16t-6 -16v-53zM109 619q0 34 14.5 53.5t55.5 19.5t56.5 -20t15.5 -54t-15 -53.5t-56 -19.5
t-56 19.5t-15 54.5z" />
    <glyph glyph-name="Eogonek" unicode="&#x118;" horiz-adv-x="272" 
d="M186 544v-97h80v-156h-80v-135h80v-156h-260v700h260v-156h-80zM266 8v-7q-23 0 -36 -16.5t-13 -34.5q0 -14 8.5 -24t26.5 -10h6.5t7.5 1v-85q-16 -5 -30 -6.5t-27 -1.5q-51 0 -77.5 24t-26.5 56q0 18 9.5 36.5t29.5 33.5t50.5 24.5t71.5 9.5z" />
    <glyph glyph-name="eogonek" unicode="&#x119;" 
d="M358 195v-33q0 -80 -48 -126t-130 -46t-128 45.5t-46 126.5v186q0 81 46 126.5t128 45.5t130 -46t48 -126v-133h-182v-63q0 -16 6 -16t6 16v43h170zM176 305h12v53q0 16 -6 16t-6 -16v-53zM246 8v-7q-23 0 -36 -16.5t-13 -34.5q0 -14 8.5 -24t26.5 -10h6.5t7.5 1v-85
q-16 -5 -30 -6.5t-27 -1.5q-51 0 -77.5 24t-26.5 56q0 18 9.5 36.5t29.5 33.5t50.5 24.5t71.5 9.5z" />
    <glyph glyph-name="Ecaron" unicode="&#x11a;" horiz-adv-x="272" 
d="M186 544v-97h80v-156h-80v-135h80v-156h-260v700h260v-156h-80zM236 878l-40 -137h-120l-40 137h92l5 -46h6l5 46h92z" />
    <glyph glyph-name="ecaron" unicode="&#x11b;" 
d="M358 195v-33q0 -80 -48 -126t-130 -46t-128 45.5t-46 126.5v186q0 81 46 126.5t128 45.5t130 -46t48 -126v-133h-182v-63q0 -16 6 -16t6 16v43h170zM176 305h12v53q0 16 -6 16t-6 -16v-53zM280 688l-40 -137h-120l-40 137h92l5 -46h6l5 46h92z" />
    <glyph glyph-name="Gcircumflex" unicode="&#x11c;" horiz-adv-x="384" 
d="M186 392h192v-392h-122v56h-12q-8 -32 -36 -49t-62 -17q-25 0 -50 10.5t-45 33t-32.5 57.5t-12.5 85v349q0 91 47 138t136 47q91 0 140 -48t49 -137v-113h-180v126q0 16 -6 16t-6 -16v-146zM186 162q0 -16 6 -16t6 16v114h-12v-114zM92 740l40 137h120l40 -137h-92l-5 46
h-6l-5 -46h-92z" />
    <glyph glyph-name="gcircumflex" unicode="&#x11d;" 
d="M358 -58q0 -73 -45 -112.5t-130 -39.5t-131 40t-46 112v32h170v-22q0 -16 6 -16t6 18v90h-12q-12 -26 -32.5 -40t-44.5 -14q-43 0 -68 37t-25 101v261q0 62 24 96.5t67 34.5q25 0 45.5 -13t33.5 -41h12v44h170v-568zM188 364q-3 6 -7 6q-5 0 -5 -9v-208q0 -14 5 -14
q4 0 7 7v218zM62 550l40 137h120l40 -137h-92l-5 46h-6l-5 -46h-92z" />
    <glyph glyph-name="Gbreve" unicode="&#x11e;" horiz-adv-x="384" 
d="M186 392h192v-392h-122v56h-12q-8 -32 -36 -49t-62 -17q-25 0 -50 10.5t-45 33t-32.5 57.5t-12.5 85v349q0 91 47 138t136 47q91 0 140 -48t49 -137v-113h-180v126q0 16 -6 16t-6 -16v-146zM186 162q0 -16 6 -16t6 16v114h-12v-114zM170 877q0 -37 22 -37t22 37h100
q0 -75 -31 -106t-91 -31t-91 31t-31 106h100z" />
    <glyph glyph-name="gbreve" unicode="&#x11f;" 
d="M358 -58q0 -73 -45 -112.5t-130 -39.5t-131 40t-46 112v32h170v-22q0 -16 6 -16t6 18v90h-12q-12 -26 -32.5 -40t-44.5 -14q-43 0 -68 37t-25 101v261q0 62 24 96.5t67 34.5q25 0 45.5 -13t33.5 -41h12v44h170v-568zM188 364q-3 6 -7 6q-5 0 -5 -9v-208q0 -14 5 -14
q4 0 7 7v218zM140 687q0 -37 22 -37t22 37h100q0 -75 -31 -106t-91 -31t-91 31t-31 106h100z" />
    <glyph glyph-name="Gdotaccent" unicode="&#x120;" horiz-adv-x="384" 
d="M186 392h192v-392h-122v56h-12q-8 -32 -36 -49t-62 -17q-25 0 -50 10.5t-45 33t-32.5 57.5t-12.5 85v349q0 91 47 138t136 47q91 0 140 -48t49 -137v-113h-180v126q0 16 -6 16t-6 -16v-146zM186 162q0 -16 6 -16t6 16v114h-12v-114zM121 809q0 34 14.5 53.5t55.5 19.5
t56.5 -20t15.5 -54t-15 -53.5t-56 -19.5t-56 19.5t-15 54.5z" />
    <glyph glyph-name="gdotaccent" unicode="&#x121;" 
d="M358 -58q0 -73 -45 -112.5t-130 -39.5t-131 40t-46 112v32h170v-22q0 -16 6 -16t6 18v90h-12q-12 -26 -32.5 -40t-44.5 -14q-43 0 -68 37t-25 101v261q0 62 24 96.5t67 34.5q25 0 45.5 -13t33.5 -41h12v44h170v-568zM188 364q-3 6 -7 6q-5 0 -5 -9v-208q0 -14 5 -14
q4 0 7 7v218zM91 619q0 34 14.5 53.5t55.5 19.5t56.5 -20t15.5 -54t-15 -53.5t-56 -19.5t-56 19.5t-15 54.5z" />
    <glyph glyph-name="uni0122" unicode="&#x122;" horiz-adv-x="384" 
d="M186 392h192v-392h-122v56h-12q-8 -32 -36 -49t-62 -17q-25 0 -50 10.5t-45 33t-32.5 57.5t-12.5 85v349q0 91 47 138t136 47q91 0 140 -48t49 -137v-113h-180v126q0 16 -6 16t-6 -16v-146zM186 162q0 -16 6 -16t6 16v114h-12v-114zM135 -40h136l-66 -137h-86z" />
    <glyph glyph-name="uni0123" unicode="&#x123;" 
d="M358 -58q0 -73 -45 -112.5t-130 -39.5t-131 40t-46 112v32h170v-22q0 -16 6 -16t6 18v90h-12q-12 -26 -32.5 -40t-44.5 -14q-43 0 -68 37t-25 101v261q0 62 24 96.5t67 34.5q25 0 45.5 -13t33.5 -41h12v44h170v-568zM188 364q-3 6 -7 6q-5 0 -5 -9v-208q0 -14 5 -14
q4 0 7 7v218zM253 550h-136l67 136h86z" />
    <glyph glyph-name="Hcircumflex" unicode="&#x124;" horiz-adv-x="384" 
d="M378 700v-700h-180v281h-12v-281h-180v700h180v-263h12v263h180zM92 740l40 137h120l40 -137h-92l-5 46h-6l-5 -46h-92z" />
    <glyph glyph-name="hcircumflex" unicode="&#x125;" 
d="M6 720h170v-254h12q26 54 79 54q18 0 34.5 -7t29 -23t20 -41t7.5 -60v-389h-170v362q0 8 -5 8q-4 0 -7 -5v-365h-170v720zM-12 750l40 137h120l40 -137h-92l-5 46h-6l-5 -46h-92z" />
    <glyph glyph-name="Hbar" unicode="&#x126;" horiz-adv-x="384" 
d="M378 700v-110h20v-100h-20v-490h-180v281h-12v-281h-180v490h-20v100h20v110h180v-110h12v110h180zM198 437v53h-12v-53h12z" />
    <glyph glyph-name="hbar" unicode="&#x127;" 
d="M6 720h170v-254h12q26 54 79 54q18 0 34.5 -7t29 -23t20 -41t7.5 -60v-389h-170v362q0 8 -5 8q-4 0 -7 -5v-365h-170v720zM225 559h-250v116h250v-116z" />
    <glyph glyph-name="Itilde" unicode="&#x128;" horiz-adv-x="192" 
d="M186 700v-700h-180v700h180zM193 872q0 -69 -12.5 -100.5t-37.5 -31.5q-13 0 -26 5.5t-25 11.5l-4 2q-11 5 -19.5 9t-15.5 4q-16 0 -16 -27v-1h-39v2q0 63 13.5 97t39.5 34q11 0 23.5 -5t24.5 -11l4 -2q11 -5 20 -8.5t16 -3.5q16 0 16 25v2h38v-2z" />
    <glyph glyph-name="itilde" unicode="&#x129;" horiz-adv-x="184" 
d="M177 510v-510h-170v510h170zM189 682q0 -69 -12.5 -100.5t-37.5 -31.5q-13 0 -26 5.5t-25 11.5l-4 2q-11 5 -19.5 9t-15.5 4q-16 0 -16 -27v-1h-39v2q0 63 13.5 97t39.5 34q11 0 23.5 -5t24.5 -11l4 -2q11 -5 20 -8.5t16 -3.5q16 0 16 25v2h38v-2z" />
    <glyph glyph-name="Imacron" unicode="&#x12a;" horiz-adv-x="192" 
d="M186 700v-700h-180v700h180zM206 744h-220v130h220v-130z" />
    <glyph glyph-name="imacron" unicode="&#x12b;" horiz-adv-x="184" 
d="M177 510v-510h-170v510h170zM202 554h-220v130h220v-130z" />
    <glyph glyph-name="Ibreve" unicode="&#x12c;" horiz-adv-x="192" 
d="M186 700v-700h-180v700h180zM74 877q0 -37 22 -37t22 37h100q0 -75 -31 -106t-91 -31t-91 31t-31 106h100z" />
    <glyph glyph-name="ibreve" unicode="&#x12d;" horiz-adv-x="184" 
d="M177 510v-510h-170v510h170zM70 687q0 -37 22 -37t22 37h100q0 -75 -31 -106t-91 -31t-91 31t-31 106h100z" />
    <glyph glyph-name="Iogonek" unicode="&#x12e;" horiz-adv-x="192" 
d="M186 700v-700h-180v700h180zM185 8v-7q-23 0 -36 -16.5t-13 -34.5q0 -14 8.5 -24t26.5 -10h6.5t7.5 1v-85q-16 -5 -30 -6.5t-27 -1.5q-51 0 -77.5 24t-26.5 56q0 18 9.5 36.5t29.5 33.5t50.5 24.5t71.5 9.5z" />
    <glyph glyph-name="iogonek" unicode="&#x12f;" horiz-adv-x="184" 
d="M1 619q0 42 24 61.5t66 19.5t67 -19.5t25 -61.5t-24.5 -61.5t-66.5 -19.5t-66.5 19.5t-24.5 61.5zM177 510v-510h-170v510h170zM172 -2v-7q-23 0 -36 -16.5t-13 -34.5q0 -14 8.5 -24t26.5 -10h6.5t7.5 1v-85q-16 -5 -30 -6.5t-27 -1.5q-51 0 -77.5 24t-26.5 56
q0 18 9.5 36.5t29.5 33.5t50.5 24.5t71.5 9.5z" />
    <glyph glyph-name="Idotaccent" unicode="&#x130;" horiz-adv-x="192" 
d="M186 700v-700h-180v700h180zM25 809q0 34 14.5 53.5t55.5 19.5t56.5 -20t15.5 -54t-15 -53.5t-56 -19.5t-56 19.5t-15 54.5z" />
    <glyph glyph-name="dotlessi" unicode="&#x131;" horiz-adv-x="184" 
d="M177 510v-510h-170v510h170z" />
    <glyph glyph-name="IJ" unicode="&#x132;" horiz-adv-x="576" 
d="M186 700v-700h-180v700h180zM570 700v-524q0 -90 -49 -138t-141 -48q-91 0 -136.5 47.5t-45.5 138.5v159h180v-173q0 -16 6 -16t6 16v538h180z" />
    <glyph glyph-name="ij" unicode="&#x133;" horiz-adv-x="367" 
d="M1 619q0 42 24 61.5t66 19.5t67 -19.5t25 -61.5t-24.5 -61.5t-66.5 -19.5t-66.5 19.5t-24.5 61.5zM177 510v-510h-170v510h170zM184 620q0 42 24 61.5t66 19.5t67 -19.5t25 -61.5t-24.5 -61.5t-66.5 -19.5t-66.5 19.5t-24.5 61.5zM360 -29q0 -93 -40 -137t-108 -44
q-32 0 -68 9v146q3 -1 6.5 -1h6.5q14 0 23.5 5.5t9.5 19.5v541h170v-539z" />
    <glyph glyph-name="Jcircumflex" unicode="&#x134;" horiz-adv-x="384" 
d="M378 700v-524q0 -90 -49 -138t-141 -48q-91 0 -136.5 47.5t-45.5 138.5v159h180v-173q0 -16 6 -16t6 16v538h180zM188 740l40 137h120l40 -137h-92l-5 46h-6l-5 -46h-92z" />
    <glyph glyph-name="jcircumflex" unicode="&#x135;" horiz-adv-x="183" 
d="M176 -29q0 -93 -40 -137t-108 -44q-32 0 -68 9v146q3 -1 6.5 -1h6.5q14 0 23.5 5.5t9.5 19.5v541h170v-539zM-10 550l40 137h120l40 -137h-92l-5 46h-6l-5 -46h-92z" />
    <glyph glyph-name="uni0136" unicode="&#x136;" horiz-adv-x="391" 
d="M186 427h12v273h190l-42 -350l42 -350h-190v272h-12v-272h-180v700h180v-273zM134 -40h136l-66 -137h-86z" />
    <glyph glyph-name="uni0137" unicode="&#x137;" horiz-adv-x="356" 
d="M176 349h12l6 161h166l-39 -242l45 -268h-166l-12 184h-12v-184h-170v720h170v-371zM129 -40h136l-66 -137h-86z" />
    <glyph glyph-name="kgreenlandic" unicode="&#x138;" horiz-adv-x="356" 
d="M176 349h12l6 161h166l-39 -242l45 -268h-166l-12 184h-12v-184h-170v510h170v-161z" />
    <glyph glyph-name="Lacute" unicode="&#x139;" horiz-adv-x="269" 
d="M186 700v-544h80v-156h-260v700h180zM37 740l29 137h130l-49 -137h-110z" />
    <glyph glyph-name="lacute" unicode="&#x13a;" horiz-adv-x="182" 
d="M6 720h170v-720h-170v720zM32 760l29 137h130l-49 -137h-110z" />
    <glyph glyph-name="uni013B" unicode="&#x13b;" horiz-adv-x="269" 
d="M186 700v-544h80v-156h-260v700h180zM73 -40h136l-66 -137h-86z" />
    <glyph glyph-name="uni013C" unicode="&#x13c;" horiz-adv-x="182" 
d="M6 720h170v-720h-170v720zM25 -40h136l-66 -137h-86z" />
    <glyph glyph-name="Lcaron" unicode="&#x13d;" horiz-adv-x="279" 
d="M186 700v-544h80v-156h-260v700h180zM218 700h116l-71 -247h-66z" />
    <glyph glyph-name="lcaron" unicode="&#x13e;" horiz-adv-x="182" 
d="M6 720h170v-720h-170v720zM208 720h116l-71 -247h-66z" />
    <glyph glyph-name="Ldot" unicode="&#x13f;" horiz-adv-x="269" 
d="M186 700v-544h80v-156h-260v700h180zM198 375q0 34 14.5 53.5t55.5 19.5t56.5 -20t15.5 -54t-15 -53.5t-56 -19.5t-56 19.5t-15 54.5z" />
    <glyph glyph-name="ldot" unicode="&#x140;" horiz-adv-x="182" 
d="M6 720h170v-720h-170v720zM188 359q0 34 14.5 53.5t55.5 19.5t56.5 -20t15.5 -54t-15 -53.5t-56 -19.5t-56 19.5t-15 54.5z" />
    <glyph glyph-name="Lslash" unicode="&#x141;" horiz-adv-x="269" 
d="M186 700v-544h80v-156h-260v700h180zM245 371l-259 -93l-40 109l259 93z" />
    <glyph glyph-name="lslash" unicode="&#x142;" horiz-adv-x="182" 
d="M6 720h170v-720h-170v720zM240 355l-259 -93l-40 109l259 93z" />
    <glyph glyph-name="Nacute" unicode="&#x143;" horiz-adv-x="400" 
d="M394 700v-700h-193l-46 380h-10l41 -380h-180v700h193l50 -384h10l-45 384h180zM140 740l29 137h130l-49 -137h-110z" />
    <glyph glyph-name="nacute" unicode="&#x144;" 
d="M6 510h170v-44h12q28 54 79 54q18 0 34.5 -7t29 -23t20 -41t7.5 -60v-389h-170v364q0 8 -5 8q-4 0 -7 -5v-367h-170v510zM124 550l29 137h130l-49 -137h-110z" />
    <glyph glyph-name="uni0145" unicode="&#x145;" horiz-adv-x="400" 
d="M394 700v-700h-193l-46 380h-10l41 -380h-180v700h193l50 -384h10l-45 384h180zM137 -40h136l-66 -137h-86z" />
    <glyph glyph-name="uni0146" unicode="&#x146;" 
d="M6 510h170v-44h12q28 54 79 54q18 0 34.5 -7t29 -23t20 -41t7.5 -60v-389h-170v364q0 8 -5 8q-4 0 -7 -5v-367h-170v510zM126 -40h136l-66 -137h-86z" />
    <glyph glyph-name="Ncaron" unicode="&#x147;" horiz-adv-x="400" 
d="M394 700v-700h-193l-46 380h-10l41 -380h-180v700h193l50 -384h10l-45 384h180zM299 878l-40 -137h-120l-40 137h92l5 -46h6l5 46h92z" />
    <glyph glyph-name="ncaron" unicode="&#x148;" 
d="M6 510h170v-44h12q28 54 79 54q18 0 34.5 -7t29 -23t20 -41t7.5 -60v-389h-170v364q0 8 -5 8q-4 0 -7 -5v-367h-170v510zM283 688l-40 -137h-120l-40 137h92l5 -46h6l5 46h92z" />
    <glyph glyph-name="napostrophe" unicode="&#x149;" 
d="M6 510h170v-44h12q28 54 79 54q18 0 34.5 -7t29 -23t20 -41t7.5 -60v-389h-170v364q0 8 -5 8q-4 0 -7 -5v-367h-170v510zM-89 700h136l-71 -247h-86z" />
    <glyph glyph-name="Eng" unicode="&#x14a;" horiz-adv-x="401" 
d="M395 700v-730q0 -93 -40 -137t-108 -44q-32 0 -68 9v146q2 -1 7 -1q16 0 16 25v32l-46 380h-10l41 -380h-180v700h193l50 -384h10l-45 384h180z" />
    <glyph glyph-name="eng" unicode="&#x14b;" 
d="M358 -29q0 -93 -40 -137t-108 -44q-32 0 -68 9v146q3 -1 6.5 -1h6.5q14 0 23.5 5.5t9.5 19.5v395q0 8 -5 8q-4 0 -7 -5v-367h-170v510h170v-44h12q28 54 79 54q18 0 34.5 -7t29 -23t20 -41t7.5 -60v-418z" />
    <glyph glyph-name="Omacron" unicode="&#x14c;" horiz-adv-x="384" 
d="M6 525q0 91 47 138t136 47q91 0 140 -48t49 -137v-349q0 -90 -49 -138t-140 -48q-89 0 -136 47.5t-47 138.5v349zM186 162q0 -16 6 -16t6 16v376q0 16 -6 16t-6 -16v-376zM302 744h-220v130h220v-130z" />
    <glyph glyph-name="omacron" unicode="&#x14d;" 
d="M6 348q0 75 43.5 123.5t130.5 48.5q44 0 77 -13t55.5 -36t34 -54.5t11.5 -68.5v-186q0 -37 -11.5 -68.5t-34 -54.5t-55.5 -36t-77 -13q-87 0 -130.5 48.5t-43.5 123.5v186zM176 152q0 -16 6 -16t6 16v206q0 16 -6 16t-6 -16v-206zM290 554h-220v130h220v-130z" />
    <glyph glyph-name="Obreve" unicode="&#x14e;" horiz-adv-x="384" 
d="M6 525q0 91 47 138t136 47q91 0 140 -48t49 -137v-349q0 -90 -49 -138t-140 -48q-89 0 -136 47.5t-47 138.5v349zM186 162q0 -16 6 -16t6 16v376q0 16 -6 16t-6 -16v-376zM170 877q0 -37 22 -37t22 37h100q0 -75 -31 -106t-91 -31t-91 31t-31 106h100z" />
    <glyph glyph-name="obreve" unicode="&#x14f;" 
d="M6 348q0 75 43.5 123.5t130.5 48.5q44 0 77 -13t55.5 -36t34 -54.5t11.5 -68.5v-186q0 -37 -11.5 -68.5t-34 -54.5t-55.5 -36t-77 -13q-87 0 -130.5 48.5t-43.5 123.5v186zM176 152q0 -16 6 -16t6 16v206q0 16 -6 16t-6 -16v-206zM158 687q0 -37 22 -37t22 37h100
q0 -75 -31 -106t-91 -31t-91 31t-31 106h100z" />
    <glyph glyph-name="Ohungarumlaut" unicode="&#x150;" horiz-adv-x="384" 
d="M6 525q0 91 47 138t136 47q91 0 140 -48t49 -137v-349q0 -90 -49 -138t-140 -48q-89 0 -136 47.5t-47 138.5v349zM186 162q0 -16 6 -16t6 16v376q0 16 -6 16t-6 -16v-376zM81 740l29 137h100l-48 -137h-81zM194 740l29 137h100l-48 -137h-81z" />
    <glyph glyph-name="ohungarumlaut" unicode="&#x151;" 
d="M6 348q0 75 43.5 123.5t130.5 48.5q44 0 77 -13t55.5 -36t34 -54.5t11.5 -68.5v-186q0 -37 -11.5 -68.5t-34 -54.5t-55.5 -36t-77 -13q-87 0 -130.5 48.5t-43.5 123.5v186zM176 152q0 -16 6 -16t6 16v206q0 16 -6 16t-6 -16v-206zM69 550l29 137h100l-48 -137h-81z
M182 550l29 137h100l-48 -137h-81z" />
    <glyph glyph-name="OE" unicode="&#x152;" horiz-adv-x="464" 
d="M378 544v-97h80v-156h-80v-135h80v-156h-269q-89 0 -136 47.5t-47 138.5v329q0 91 47 138t136 47h269v-156h-80zM186 172q0 -16 9 -16h3v388h-3q-9 0 -9 -16v-356z" />
    <glyph glyph-name="oe" unicode="&#x153;" horiz-adv-x="546" 
d="M6 348q0 75 43.5 123.5t130.5 48.5q27 0 47 -5t38 -14h12q18 9 38.5 14t46.5 5q82 0 130 -46t48 -126v-133h-182v-63q0 -16 6 -16t6 16v43h170v-33q0 -80 -48 -126t-130 -46q-26 0 -46 5t-38 14h-12q-18 -9 -38.5 -14t-47.5 -5q-87 0 -130.5 48.5t-43.5 123.5v186z
M176 152q0 -16 6 -16t6 16v206q0 16 -6 16t-6 -16v-206zM358 305h12v53q0 16 -6 16t-6 -16v-53z" />
    <glyph glyph-name="Racute" unicode="&#x154;" horiz-adv-x="384" 
d="M190 700q90 0 139 -45.5t49 -141.5v-5q0 -44 -10 -76.5t-25 -54.5t-33 -32.5t-34 -10.5v-12q16 0 34 -12t33 -34t25 -54t10 -72v-8q0 -40 1.5 -75t8.5 -67h-180q-7 33 -8.5 68t-1.5 76v90q0 11 -1 13.5t-9 2.5h-2v-250h-180v700h184zM186 406h2q8 0 9 2.5t1 13.5v107
q0 10 -1 12.5t-9 2.5h-2v-138zM133 740l29 137h130l-49 -137h-110z" />
    <glyph glyph-name="racute" unicode="&#x155;" horiz-adv-x="286" 
d="M176 446h4q10 32 32.5 53t54.5 21q9 0 13 -1v-169q-7 1 -13.5 1.5t-14.5 0.5q-41 0 -58.5 -20.5t-17.5 -61.5v-270h-170v510h170v-64zM85 550l29 137h130l-49 -137h-110z" />
    <glyph glyph-name="uni0156" unicode="&#x156;" horiz-adv-x="384" 
d="M190 700q90 0 139 -45.5t49 -141.5v-5q0 -44 -10 -76.5t-25 -54.5t-33 -32.5t-34 -10.5v-12q16 0 34 -12t33 -34t25 -54t10 -72v-8q0 -40 1.5 -75t8.5 -67h-180q-7 33 -8.5 68t-1.5 76v90q0 11 -1 13.5t-9 2.5h-2v-250h-180v700h184zM186 406h2q8 0 9 2.5t1 13.5v107
q0 10 -1 12.5t-9 2.5h-2v-138zM140 -40h136l-66 -137h-86z" />
    <glyph glyph-name="uni0157" unicode="&#x157;" horiz-adv-x="286" 
d="M176 446h4q10 32 32.5 53t54.5 21q9 0 13 -1v-169q-7 1 -13.5 1.5t-14.5 0.5q-41 0 -58.5 -20.5t-17.5 -61.5v-270h-170v510h170v-64zM34 -40h136l-66 -137h-86z" />
    <glyph glyph-name="Rcaron" unicode="&#x158;" horiz-adv-x="384" 
d="M190 700q90 0 139 -45.5t49 -141.5v-5q0 -44 -10 -76.5t-25 -54.5t-33 -32.5t-34 -10.5v-12q16 0 34 -12t33 -34t25 -54t10 -72v-8q0 -40 1.5 -75t8.5 -67h-180q-7 33 -8.5 68t-1.5 76v90q0 11 -1 13.5t-9 2.5h-2v-250h-180v700h184zM186 406h2q8 0 9 2.5t1 13.5v107
q0 10 -1 12.5t-9 2.5h-2v-138zM292 878l-40 -137h-120l-40 137h92l5 -46h6l5 46h92z" />
    <glyph glyph-name="rcaron" unicode="&#x159;" horiz-adv-x="286" 
d="M176 446h4q10 32 32.5 53t54.5 21q9 0 13 -1v-169q-7 1 -13.5 1.5t-14.5 0.5q-41 0 -58.5 -20.5t-17.5 -61.5v-270h-170v510h170v-64zM244 688l-40 -137h-120l-40 137h92l5 -46h6l5 46h92z" />
    <glyph glyph-name="Sacute" unicode="&#x15a;" horiz-adv-x="384" 
d="M198 460v78q0 16 -6 16t-6 -16v-56q0 -11 1.5 -18.5t9 -15t23.5 -17.5t45 -26l27 -15q26 -14 42.5 -31t26 -40t13.5 -54.5t4 -75.5v-13q0 -90 -49 -138t-140 -48q-90 0 -136.5 47.5t-46.5 138.5v64h180v-78q0 -16 6 -16t6 15v59q0 11 -1.5 18t-8 14t-21 16t-40.5 24
l-32 18q-26 15 -43.5 32.5t-27.5 41.5t-14 56t-4 76v9q0 91 47 138t136 47q91 0 140 -48t49 -137v-65h-180zM133 740l29 137h130l-49 -137h-110z" />
    <glyph glyph-name="sacute" unicode="&#x15b;" 
d="M188 336v22q0 15 -6 15t-6 -15v-1q0 -14 5 -20.5t22 -14.5l71 -35q42 -21 62.5 -49.5t20.5 -79.5v-16q0 -30 -11.5 -57.5t-34 -48.5t-56 -33.5t-76.5 -12.5t-75 12.5t-54 35t-33 52.5t-11 64v20h170v-20q0 -15 6 -15t6 15v1q0 14 -5.5 20.5t-25.5 15.5l-72 33
q-43 20 -60.5 48.5t-17.5 79.5v16q0 30 11 57.5t33 48.5t54.5 33.5t75.5 12.5t76 -13t55.5 -35t34 -51.5t11.5 -63.5v-21h-170zM121 550l29 137h130l-49 -137h-110z" />
    <glyph glyph-name="Scircumflex" unicode="&#x15c;" horiz-adv-x="384" 
d="M198 460v78q0 16 -6 16t-6 -16v-56q0 -11 1.5 -18.5t9 -15t23.5 -17.5t45 -26l27 -15q26 -14 42.5 -31t26 -40t13.5 -54.5t4 -75.5v-13q0 -90 -49 -138t-140 -48q-90 0 -136.5 47.5t-46.5 138.5v64h180v-78q0 -16 6 -16t6 15v59q0 11 -1.5 18t-8 14t-21 16t-40.5 24
l-32 18q-26 15 -43.5 32.5t-27.5 41.5t-14 56t-4 76v9q0 91 47 138t136 47q91 0 140 -48t49 -137v-65h-180zM92 740l40 137h120l40 -137h-92l-5 46h-6l-5 -46h-92z" />
    <glyph glyph-name="scircumflex" unicode="&#x15d;" 
d="M188 336v22q0 15 -6 15t-6 -15v-1q0 -14 5 -20.5t22 -14.5l71 -35q42 -21 62.5 -49.5t20.5 -79.5v-16q0 -30 -11.5 -57.5t-34 -48.5t-56 -33.5t-76.5 -12.5t-75 12.5t-54 35t-33 52.5t-11 64v20h170v-20q0 -15 6 -15t6 15v1q0 14 -5.5 20.5t-25.5 15.5l-72 33
q-43 20 -60.5 48.5t-17.5 79.5v16q0 30 11 57.5t33 48.5t54.5 33.5t75.5 12.5t76 -13t55.5 -35t34 -51.5t11.5 -63.5v-21h-170zM80 550l40 137h120l40 -137h-92l-5 46h-6l-5 -46h-92z" />
    <glyph glyph-name="Scedilla" unicode="&#x15e;" horiz-adv-x="384" 
d="M198 460v78q0 16 -6 16t-6 -16v-56q0 -11 1.5 -18.5t9 -15t23.5 -17.5t45 -26l27 -15q26 -14 42.5 -31t26 -40t13.5 -54.5t4 -75.5v-13q0 -90 -49 -138t-140 -48q-90 0 -136.5 47.5t-46.5 138.5v64h180v-78q0 -16 6 -16t6 15v59q0 11 -1.5 18t-8 14t-21 16t-40.5 24
l-32 18q-26 15 -43.5 32.5t-27.5 41.5t-14 56t-4 76v9q0 91 47 138t136 47q91 0 140 -48t49 -137v-65h-180zM181 0h66l-5 -50q48 0 71.5 -20t23.5 -46q0 -28 -28.5 -52t-87.5 -24q-16 0 -35.5 2t-40.5 6v63q15 -3 28 -3q18 0 30.5 5t12.5 13t-14 12t-37 4z" />
    <glyph glyph-name="scedilla" unicode="&#x15f;" 
d="M188 336v22q0 15 -6 15t-6 -15v-1q0 -14 5 -20.5t22 -14.5l71 -35q42 -21 62.5 -49.5t20.5 -79.5v-16q0 -30 -11.5 -57.5t-34 -48.5t-56 -33.5t-76.5 -12.5t-75 12.5t-54 35t-33 52.5t-11 64v20h170v-20q0 -15 6 -15t6 15v1q0 14 -5.5 20.5t-25.5 15.5l-72 33
q-43 20 -60.5 48.5t-17.5 79.5v16q0 30 11 57.5t33 48.5t54.5 33.5t75.5 12.5t76 -13t55.5 -35t34 -51.5t11.5 -63.5v-21h-170zM148 0h66l-5 -50q48 0 71.5 -20t23.5 -46q0 -28 -28.5 -52t-87.5 -24q-16 0 -35.5 2t-40.5 6v63q15 -3 28 -3q18 0 30.5 5t12.5 13t-14 12t-37 4
z" />
    <glyph glyph-name="Scaron" unicode="&#x160;" horiz-adv-x="384" 
d="M198 460v78q0 16 -6 16t-6 -16v-56q0 -11 1.5 -18.5t9 -15t23.5 -17.5t45 -26l27 -15q26 -14 42.5 -31t26 -40t13.5 -54.5t4 -75.5v-13q0 -90 -49 -138t-140 -48q-90 0 -136.5 47.5t-46.5 138.5v64h180v-78q0 -16 6 -16t6 15v59q0 11 -1.5 18t-8 14t-21 16t-40.5 24
l-32 18q-26 15 -43.5 32.5t-27.5 41.5t-14 56t-4 76v9q0 91 47 138t136 47q91 0 140 -48t49 -137v-65h-180zM292 878l-40 -137h-120l-40 137h92l5 -46h6l5 46h92z" />
    <glyph glyph-name="scaron" unicode="&#x161;" 
d="M188 336v22q0 15 -6 15t-6 -15v-1q0 -14 5 -20.5t22 -14.5l71 -35q42 -21 62.5 -49.5t20.5 -79.5v-16q0 -30 -11.5 -57.5t-34 -48.5t-56 -33.5t-76.5 -12.5t-75 12.5t-54 35t-33 52.5t-11 64v20h170v-20q0 -15 6 -15t6 15v1q0 14 -5.5 20.5t-25.5 15.5l-72 33
q-43 20 -60.5 48.5t-17.5 79.5v16q0 30 11 57.5t33 48.5t54.5 33.5t75.5 12.5t76 -13t55.5 -35t34 -51.5t11.5 -63.5v-21h-170zM280 688l-40 -137h-120l-40 137h92l5 -46h6l5 46h92z" />
    <glyph glyph-name="uni0162" unicode="&#x162;" horiz-adv-x="368" 
d="M364 544h-90v-544h-180v544h-90v156h360v-156zM152 8h66l-5 -50q48 0 71.5 -20t23.5 -46q0 -28 -28.5 -52t-87.5 -24q-16 0 -35.5 2t-40.5 6v63q15 -3 28 -3q18 0 30.5 5t12.5 13t-14 12t-37 4z" />
    <glyph glyph-name="uni0163" unicode="&#x163;" horiz-adv-x="285" 
d="M0 510h40v110l170 10v-120h71v-146h-71v-184q0 -23 13.5 -31t30.5 -8q7 0 13.5 1t13.5 2v-145q-46 -9 -87 -9q-35 0 -63.5 8.5t-48.5 29.5t-31 55.5t-11 86.5v194h-40v146zM132 0h66l-5 -50q48 0 71.5 -20t23.5 -46q0 -28 -28.5 -52t-87.5 -24q-16 0 -35.5 2t-40.5 6v63
q15 -3 28 -3q18 0 30.5 5t12.5 13t-14 12t-37 4z" />
    <glyph glyph-name="Tcaron" unicode="&#x164;" horiz-adv-x="368" 
d="M364 544h-90v-544h-180v544h-90v156h360v-156zM284 878l-40 -137h-120l-40 137h92l5 -46h6l5 46h92z" />
    <glyph glyph-name="tcaron" unicode="&#x165;" horiz-adv-x="285" 
d="M0 510h40v110l170 10v-120h71v-146h-71v-184q0 -23 13.5 -31t30.5 -8q7 0 13.5 1t13.5 2v-145q-46 -9 -87 -9q-35 0 -63.5 8.5t-48.5 29.5t-31 55.5t-11 86.5v194h-40v146zM243 710h107l-52 -157h-76z" />
    <glyph glyph-name="Tbar" unicode="&#x166;" horiz-adv-x="368" 
d="M364 544h-90v-544h-180v544h-90v156h360v-156zM309 257h-250v116h250v-116z" />
    <glyph glyph-name="tbar" unicode="&#x167;" horiz-adv-x="285" 
d="M0 510h40v110l170 10v-120h71v-146h-71v-184q0 -23 13.5 -31t30.5 -8q7 0 13.5 1t13.5 2v-145q-46 -9 -87 -9q-35 0 -63.5 8.5t-48.5 29.5t-31 55.5t-11 86.5v194h-40v146zM281 233h-281v96h281v-96z" />
    <glyph glyph-name="Utilde" unicode="&#x168;" horiz-adv-x="384" 
d="M186 700v-538q0 -16 6 -16t6 16v538h180v-524q0 -90 -49 -138t-140 -48q-90 0 -136.5 47.5t-46.5 138.5v524h180zM289 872q0 -69 -12.5 -100.5t-37.5 -31.5q-13 0 -26 5.5t-25 11.5l-4 2q-11 5 -19.5 9t-15.5 4q-16 0 -16 -27v-1h-39v2q0 63 13.5 97t39.5 34
q11 0 23.5 -5t24.5 -11l4 -2q11 -5 20 -8.5t16 -3.5q16 0 16 25v2h38v-2z" />
    <glyph glyph-name="utilde" unicode="&#x169;" 
d="M358 0h-170v44h-12q-28 -54 -79 -54q-37 0 -64 30.5t-27 100.5v389h170v-368q0 -8 5 -8q4 0 7 5v371h170v-510zM277 682q0 -69 -12.5 -100.5t-37.5 -31.5q-13 0 -26 5.5t-25 11.5l-4 2q-11 5 -19.5 9t-15.5 4q-16 0 -16 -27v-1h-39v2q0 63 13.5 97t39.5 34q11 0 23.5 -5
t24.5 -11l4 -2q11 -5 20 -8.5t16 -3.5q16 0 16 25v2h38v-2z" />
    <glyph glyph-name="Umacron" unicode="&#x16a;" horiz-adv-x="384" 
d="M186 700v-538q0 -16 6 -16t6 16v538h180v-524q0 -90 -49 -138t-140 -48q-90 0 -136.5 47.5t-46.5 138.5v524h180zM302 744h-220v130h220v-130z" />
    <glyph glyph-name="umacron" unicode="&#x16b;" 
d="M358 0h-170v44h-12q-28 -54 -79 -54q-37 0 -64 30.5t-27 100.5v389h170v-368q0 -8 5 -8q4 0 7 5v371h170v-510zM290 554h-220v130h220v-130z" />
    <glyph glyph-name="Ubreve" unicode="&#x16c;" horiz-adv-x="384" 
d="M186 700v-538q0 -16 6 -16t6 16v538h180v-524q0 -90 -49 -138t-140 -48q-90 0 -136.5 47.5t-46.5 138.5v524h180zM170 877q0 -37 22 -37t22 37h100q0 -75 -31 -106t-91 -31t-91 31t-31 106h100z" />
    <glyph glyph-name="ubreve" unicode="&#x16d;" 
d="M358 0h-170v44h-12q-28 -54 -79 -54q-37 0 -64 30.5t-27 100.5v389h170v-368q0 -8 5 -8q4 0 7 5v371h170v-510zM158 687q0 -37 22 -37t22 37h100q0 -75 -31 -106t-91 -31t-91 31t-31 106h100z" />
    <glyph glyph-name="Uring" unicode="&#x16e;" horiz-adv-x="384" 
d="M186 700v-538q0 -16 6 -16t6 16v538h180v-524q0 -90 -49 -138t-140 -48q-90 0 -136.5 47.5t-46.5 138.5v524h180zM106 809q0 38 23 55.5t62 17.5q40 0 63.5 -18t23.5 -55q0 -38 -23 -56t-63 -18t-63 18t-23 56zM161 809q0 -25 31 -25t31 25q0 24 -31 24t-31 -24z" />
    <glyph glyph-name="uring" unicode="&#x16f;" 
d="M358 0h-170v44h-12q-28 -54 -79 -54q-37 0 -64 30.5t-27 100.5v389h170v-368q0 -8 5 -8q4 0 7 5v371h170v-510zM94 619q0 38 23 55.5t62 17.5q40 0 63.5 -18t23.5 -55q0 -38 -23 -56t-63 -18t-63 18t-23 56zM149 619q0 -25 31 -25t31 25q0 24 -31 24t-31 -24z" />
    <glyph glyph-name="Uhungarumlaut" unicode="&#x170;" horiz-adv-x="384" 
d="M186 700v-538q0 -16 6 -16t6 16v538h180v-524q0 -90 -49 -138t-140 -48q-90 0 -136.5 47.5t-46.5 138.5v524h180zM81 740l29 137h100l-48 -137h-81zM194 740l29 137h100l-48 -137h-81z" />
    <glyph glyph-name="uhungarumlaut" unicode="&#x171;" 
d="M358 0h-170v44h-12q-28 -54 -79 -54q-37 0 -64 30.5t-27 100.5v389h170v-368q0 -8 5 -8q4 0 7 5v371h170v-510zM69 550l29 137h100l-48 -137h-81zM182 550l29 137h100l-48 -137h-81z" />
    <glyph glyph-name="Uogonek" unicode="&#x172;" horiz-adv-x="384" 
d="M186 700v-538q0 -16 6 -16t6 16v538h180v-524q0 -90 -49 -138t-140 -48q-90 0 -136.5 47.5t-46.5 138.5v524h180zM262 8v-7q-23 0 -36 -16.5t-13 -34.5q0 -14 8.5 -24t26.5 -10h6.5t7.5 1v-85q-16 -5 -30 -6.5t-27 -1.5q-51 0 -77.5 24t-26.5 56q0 18 9.5 36.5t29.5 33.5
t50.5 24.5t71.5 9.5z" />
    <glyph glyph-name="uogonek" unicode="&#x173;" 
d="M358 0h-170v44h-12q-28 -54 -79 -54q-37 0 -64 30.5t-27 100.5v389h170v-368q0 -8 5 -8q4 0 7 5v371h170v-510zM358 8v-7q-23 0 -36 -16.5t-13 -34.5q0 -14 8.5 -24t26.5 -10h6.5t7.5 1v-85q-16 -5 -30 -6.5t-27 -1.5q-51 0 -77.5 24t-26.5 56q0 18 9.5 36.5t29.5 33.5
t50.5 24.5t71.5 9.5z" />
    <glyph glyph-name="Wcircumflex" unicode="&#x174;" horiz-adv-x="506" 
d="M183 700l-10 -386h12l10 386h116l10 -386h12l-10 386h180l-48 -700h-198v247h-12v-247h-198l-44 700h180zM153 740l40 137h120l40 -137h-92l-5 46h-6l-5 -46h-92z" />
    <glyph glyph-name="wcircumflex" unicode="&#x175;" horiz-adv-x="488" 
d="M174 510l-10 -269h12l10 269h116l10 -269h12l-10 269h170l-56 -510h-178v164h-12v-164h-178l-56 510h170zM144 550l40 137h120l40 -137h-92l-5 46h-6l-5 -46h-92z" />
    <glyph glyph-name="Ycircumflex" unicode="&#x176;" horiz-adv-x="378" 
d="M183 700v-263h12v263h180l-98 -510v-190h-180v190l-94 510h180zM89 740l40 137h120l40 -137h-92l-5 46h-6l-5 -46h-92z" />
    <glyph glyph-name="ycircumflex" unicode="&#x177;" 
d="M358 -58q0 -73 -45 -112.5t-130 -39.5t-131 40t-46 112v32h170v-22q0 -16 6 -16t6 18v90h-12q-28 -54 -79 -54q-37 0 -64 30.5t-27 100.5v389h170v-368q0 -8 5 -8q4 0 7 5v371h170v-568zM80 550l40 137h120l40 -137h-92l-5 46h-6l-5 -46h-92z" />
    <glyph glyph-name="Ydieresis" unicode="&#x178;" horiz-adv-x="378" 
d="M183 700v-263h12v263h180l-98 -510v-190h-180v190l-94 510h180zM44 809q0 34 14.5 53.5t55.5 19.5t56.5 -20t15.5 -54t-15 -53.5t-56 -19.5t-56 19.5t-15 54.5zM192 809q0 34 14.5 53.5t55.5 19.5t56.5 -20t15.5 -54t-15 -53.5t-56 -19.5t-56 19.5t-15 54.5z" />
    <glyph glyph-name="Zacute" unicode="&#x179;" horiz-adv-x="338" 
d="M324 700v-157l-137 -378l7 -9h141v-156h-332v156l138 379l-8 9h-120v156h311zM110 740l29 137h130l-49 -137h-110z" />
    <glyph glyph-name="zacute" unicode="&#x17a;" horiz-adv-x="313" 
d="M6 0v145l108 208l-5 11h-98v146h289v-145l-108 -209l6 -10h109v-146h-301zM103 549l29 137h130l-49 -137h-110z" />
    <glyph glyph-name="Zdotaccent" unicode="&#x17b;" horiz-adv-x="338" 
d="M324 700v-157l-137 -378l7 -9h141v-156h-332v156l138 379l-8 9h-120v156h311zM98 809q0 34 14.5 53.5t55.5 19.5t56.5 -20t15.5 -54t-15 -53.5t-56 -19.5t-56 19.5t-15 54.5z" />
    <glyph glyph-name="zdotaccent" unicode="&#x17c;" horiz-adv-x="313" 
d="M6 0v145l108 208l-5 11h-98v146h289v-145l-108 -209l6 -10h109v-146h-301zM91 618q0 34 14.5 53.5t55.5 19.5t56.5 -20t15.5 -54t-15 -53.5t-56 -19.5t-56 19.5t-15 54.5z" />
    <glyph glyph-name="Zcaron" unicode="&#x17d;" horiz-adv-x="338" 
d="M324 700v-157l-137 -378l7 -9h141v-156h-332v156l138 379l-8 9h-120v156h311zM269 878l-40 -137h-120l-40 137h92l5 -46h6l5 46h92z" />
    <glyph glyph-name="zcaron" unicode="&#x17e;" horiz-adv-x="313" 
d="M6 0v145l108 208l-5 11h-98v146h289v-145l-108 -209l6 -10h109v-146h-301zM262 687l-40 -137h-120l-40 137h92l5 -46h6l5 46h92z" />
    <glyph glyph-name="longs" unicode="&#x17f;" horiz-adv-x="486" 
d="M6 700h474v-700h-474v700zM243 391l157 259h-314zM56 83l162 267l-162 267v-534zM430 83v534l-162 -267zM86 50h314l-157 259z" />
    <glyph glyph-name="florin" unicode="&#x192;" horiz-adv-x="312" 
d="M71 540q0 51 11 85.5t31 55.5t48.5 30t63.5 9q41 0 87 -9v-145q-7 1 -13.5 2t-13.5 1q-17 0 -30.5 -8t-13.5 -31v-20h71v-146h-71v-394q0 -52 -11 -86.5t-31 -55.5t-48.5 -29.5t-63.5 -8.5q-20 0 -41.5 2t-45.5 6v146q14 -3 28 -3q17 0 30 8t13 30v385h-40v146h40v30z
" />
    <glyph glyph-name="uni0237" unicode="&#x237;" horiz-adv-x="183" 
d="M176 -29q0 -93 -40 -137t-108 -44q-32 0 -68 9v146q3 -1 6.5 -1h6.5q14 0 23.5 5.5t9.5 19.5v541h170v-539z" />
    <glyph glyph-name="circumflex" unicode="&#x2c6;" horiz-adv-x="213" 
d="M6 563l40 137h120l40 -137h-92l-5 46h-6l-5 -46h-92z" />
    <glyph glyph-name="caron" unicode="&#x2c7;" horiz-adv-x="213" 
d="M206 700l-40 -137h-120l-40 137h92l5 -46h6l5 46h92z" />
    <glyph glyph-name="breve" unicode="&#x2d8;" horiz-adv-x="256" 
d="M106 700q0 -37 22 -37t22 37h100q0 -75 -31 -106t-91 -31t-91 31t-31 106h100z" />
    <glyph glyph-name="dotaccent" unicode="&#x2d9;" horiz-adv-x="154" 
d="M6 632q0 34 14.5 53.5t55.5 19.5t56.5 -20t15.5 -54t-15 -53.5t-56 -19.5t-56 19.5t-15 54.5z" />
    <glyph glyph-name="ring" unicode="&#x2da;" horiz-adv-x="184" 
d="M6 632q0 38 23 55.5t62 17.5q40 0 63.5 -18t23.5 -55q0 -38 -23 -56t-63 -18t-63 18t-23 56zM61 632q0 -25 31 -25t31 25q0 24 -31 24t-31 -24z" />
    <glyph glyph-name="ogonek" unicode="&#x2db;" horiz-adv-x="174" 
d="M167 -2v-7q-23 0 -36 -16.5t-13 -34.5q0 -14 8.5 -24t26.5 -10h6.5t7.5 1v-85q-16 -5 -30 -6.5t-27 -1.5q-51 0 -77.5 24t-26.5 56q0 18 9.5 36.5t29.5 33.5t50.5 24.5t71.5 9.5z" />
    <glyph glyph-name="tilde" unicode="&#x2dc;" horiz-adv-x="208" 
d="M201 695q0 -69 -12.5 -100.5t-37.5 -31.5q-13 0 -26 5.5t-25 11.5l-4 2q-11 5 -19.5 9t-15.5 4q-16 0 -16 -27v-1h-39v2q0 63 13.5 97t39.5 34q11 0 23.5 -5t24.5 -11l4 -2q11 -5 20 -8.5t16 -3.5q16 0 16 25v2h38v-2z" />
    <glyph glyph-name="hungarumlaut" unicode="&#x2dd;" horiz-adv-x="254" 
d="M6 563l29 137h100l-48 -137h-81zM119 563l29 137h100l-48 -137h-81z" />
    <glyph glyph-name="uni0326" unicode="&#x326;" horiz-adv-x="165" 
d="M23 -10h136l-66 -137h-86z" />
    <glyph glyph-name="uni03BC" unicode="&#x3bc;" horiz-adv-x="486" 
d="M6 700h474v-700h-474v700zM243 391l157 259h-314zM56 83l162 267l-162 267v-534zM430 83v534l-162 -267zM86 50h314l-157 259z" />
    <glyph glyph-name="endash" unicode="&#x2013;" horiz-adv-x="493" 
d="M487 261h-480v156h480v-156z" />
    <glyph glyph-name="emdash" unicode="&#x2014;" horiz-adv-x="732" 
d="M726 261h-720v156h720v-156z" />
    <glyph glyph-name="quoteleft" unicode="&#x2018;" horiz-adv-x="182" 
d="M166 406h-160l50 314h120z" />
    <glyph glyph-name="quoteright" unicode="&#x2019;" horiz-adv-x="182" 
d="M16.0098 720.024h159.99l-49.9961 -313.98h-119.993z" />
    <glyph glyph-name="quotesinglbase" unicode="&#x201a;" horiz-adv-x="182" 
d="M16 200h160l-50 -314h-120z" />
    <glyph glyph-name="quotedblleft" unicode="&#x201c;" horiz-adv-x="355" 
d="M166 406h-160l50 314h120zM338 406h-160l50 314h120z" />
    <glyph glyph-name="quotedblright" unicode="&#x201d;" horiz-adv-x="355" 
d="M188.01 720.024h159.99l-49.9961 -313.98h-119.993zM16.0205 720.024h159.99l-49.9971 -313.98h-119.992z" />
    <glyph glyph-name="quotedblbase" unicode="&#x201e;" horiz-adv-x="355" 
d="M16 200h160l-50 -314h-120zM188 200h160l-50 -314h-120z" />
    <glyph glyph-name="dagger" unicode="&#x2020;" horiz-adv-x="413" 
d="M297 700v-190h110v-156h-110v-354h-180v354h-110v156h110v190h180z" />
    <glyph glyph-name="daggerdbl" unicode="&#x2021;" horiz-adv-x="413" 
d="M297 700v-160h110v-156h-110v-68h110v-156h-110v-160h-180v160h-110v156h110v68h-110v156h110v160h180z" />
    <glyph glyph-name="bullet" unicode="&#x2022;" horiz-adv-x="261" 
d="M7 367q0 59 32 91t92 32q59 0 91 -32t32 -91q0 -60 -32 -92t-91 -32q-60 0 -92 32t-32 92z" />
    <glyph glyph-name="ellipsis" unicode="&#x2026;" horiz-adv-x="547" 
d="M6 86q0 90 86 90q42 0 64 -23.5t22 -68.5q0 -43 -22 -66t-64 -23q-86 0 -86 91zM188 86q0 90 86 90q42 0 64 -23.5t22 -68.5q0 -43 -22 -66t-64 -23q-86 0 -86 91zM369 86q0 90 86 90q42 0 64 -23.5t22 -68.5q0 -43 -22 -66t-64 -23q-86 0 -86 91z" />
    <glyph glyph-name="perthousand" unicode="&#x2030;" horiz-adv-x="981" 
d="M6 538q0 38 7.5 69.5t24.5 54t44.5 35.5t67.5 13t68 -13t46 -36t26 -54.5t8 -68.5v-66q0 -37 -8 -68.5t-26 -54.5t-46 -36t-68 -13t-67.5 13t-44.5 35.5t-24.5 54.5t-7.5 69v66zM438 700h100l-300 -700h-100zM146 432q0 -16 6 -16t6 16v146q0 16 -6 16t-6 -16v-146z
M379 228q0 38 7.5 69.5t24.5 54t44.5 35.5t67.5 13t68 -13t46 -36t26 -54.5t8 -68.5v-66q0 -37 -8 -68.5t-26 -54.5t-46 -36t-68 -13t-67.5 13t-44.5 35.5t-24.5 54.5t-7.5 69v66zM683 228q0 38 7.5 69.5t24.5 54t44.5 35.5t67.5 13t68 -13t46 -36t26 -54.5t8 -68.5v-66
q0 -37 -8 -68.5t-26 -54.5t-46 -36t-68 -13t-67.5 13t-44.5 35.5t-24.5 54.5t-7.5 69v66zM519 122q0 -16 6 -16t6 16v146q0 16 -6 16t-6 -16v-146zM823 122q0 -16 6 -16t6 16v146q0 16 -6 16t-6 -16v-146z" />
    <glyph glyph-name="guilsinglleft" unicode="&#x2039;" horiz-adv-x="301" 
d="M294 79l-288 125v120l289 127v-160l-98 -25v-2l97 -25v-160z" />
    <glyph glyph-name="guilsinglright" unicode="&#x203a;" horiz-adv-x="301" 
d="M6.01758 451.005l287.982 -124.992v-119.993l-288.982 -126.992v159.99l97.9941 24.999v1.99902l-96.9941 24.999v159.99z" />
    <glyph glyph-name="fraction" unicode="&#x2044;" horiz-adv-x="215" 
d="M104 0h-97l105 720h97z" />
    <glyph glyph-name="uni2074" unicode="&#x2074;" horiz-adv-x="211" 
d="M205 710v-298h-97v77h-102v221h97v-135h5v135h97z" />
    <glyph glyph-name="Euro" unicode="&#x20ac;" horiz-adv-x="472" 
d="M226 480h40v-120h-40v-20h40v-130h-40v-8q0 -19 3.5 -30t8.5 -17t10 -7.5t8 -1.5t8 1.5t10 7.5t8.5 17t3.5 30v138h180v-164q0 -90 -55.5 -138t-157.5 -48q-101 0 -154 47.5t-53 138.5v34h-40v130h40v20h-40v120h40v45q0 91 53 138t154 47q102 0 157.5 -48t55.5 -137
v-165h-180v138q0 20 -3.5 31t-8.5 16.5t-10 7t-8 1.5t-8 -1.5t-10 -7t-8.5 -16.5t-3.5 -31v-18z" />
    <glyph glyph-name="trademark" unicode="&#x2122;" horiz-adv-x="370" 
d="M134 638h-28v-218h-72v218h-28v62h128v-62zM249 700v-153h12v153h103v-280h-66l6 152h-12l-10 -152h-54l-12 152h-12l8 -152h-66v280h103z" />
    <glyph glyph-name="minus" unicode="&#x2212;" horiz-adv-x="378" 
d="M372 274h-366v130h366v-130z" />
    <glyph glyph-name="fi" unicode="&#xfb01;" horiz-adv-x="465" 
d="M40 540q0 51 11 85.5t31 55.5t48.5 30t63.5 9q41 0 87 -9v-145q-7 1 -13.5 2t-13.5 1q-17 0 -30.5 -8t-13.5 -31v-20h71v-146h-71v-364h-170v364h-40v146h40v30zM282 619q0 42 24 61.5t66 19.5t67 -19.5t25 -61.5t-24.5 -61.5t-66.5 -19.5t-66.5 19.5t-24.5 61.5z
M458 510v-510h-170v510h170z" />
    <glyph glyph-name="fl" unicode="&#xfb02;" horiz-adv-x="469" 
d="M40 540q0 51 11 85.5t31 55.5t48.5 30t63.5 9q41 0 87 -9v-145q-7 1 -13.5 2t-13.5 1q-17 0 -30.5 -8t-13.5 -31v-20h71v-146h-71v-364h-170v364h-40v146h40v30zM293 720h170v-720h-170v720z" />
    <glyph glyph-name="ethbar" horiz-adv-x="222" 
d="M216 281h-210v116h210v-116z" />
    <glyph glyph-name="crossbar" horiz-adv-x="312" 
d="M305 336l-259 -93l-40 109l259 93z" />
    <glyph glyph-name="ethbar.case" horiz-adv-x="262" 
d="M256 281h-250v116h250v-116z" />
    <glyph glyph-name="crossbar.case" horiz-adv-x="312" 
d="M305 336l-259 -93l-40 109l259 93z" />
    <glyph glyph-name="commaaccent2" horiz-adv-x="150" 
d="M27 -10h116l-71 -247h-66z" />
    <glyph glyph-name="dotaccent2" horiz-adv-x="154" 
d="M6 632q0 34 14.5 53.5t55.5 19.5t56.5 -20t15.5 -54t-15 -53.5t-56 -19.5t-56 19.5t-15 54.5z" />
    <glyph glyph-name="ogonek.case" horiz-adv-x="174" 
d="M167 -2v-7q-23 0 -36 -16.5t-13 -34.5q0 -14 8.5 -24t26.5 -10h6.5t7.5 1v-85q-16 -5 -30 -6.5t-27 -1.5q-51 0 -77.5 24t-26.5 56q0 18 9.5 36.5t29.5 33.5t50.5 24.5t71.5 9.5z" />
    <glyph glyph-name="uni0326.case" horiz-adv-x="166" 
d="M142 -187h-136l67 136h86z" />
    <glyph glyph-name="dotaccent3" horiz-adv-x="154" 
d="M101 632q0 34 14.5 53.5t55.5 19.5t56.5 -20t15.5 -54t-15 -53.5t-56 -19.5t-56 19.5t-15 54.5z" />
    <glyph glyph-name="commaaccent3" horiz-adv-x="170" 
d="M27 -10h136l-71 -247h-86z" />
    <glyph glyph-name="bartnew" horiz-adv-x="293" 
d="M287 291h-281v96h281v-96z" />
    <glyph glyph-name="commaaccent4" horiz-adv-x="170" 
d="M27 -10h107l-52 -157h-76z" />
    </font>
</defs>
</svg>
